<mxfile host="Electron" modified="2025-09-21T11:37:15.510Z" agent="Mozilla/5.0 (Macintosh; Intel Mac OS X 10_15_7) AppleWebKit/537.36 (KHTML, like Gecko) draw.io/24.4.8 Chrome/124.0.6367.207 Electron/30.0.6 Safari/537.36" etag="G_nuYr-gJaoNDzGEBfRN" version="24.4.8" type="device">
  <diagram name="UIデザイン" id="oka19sgqCWNXOUg1VMmr">
    <mxGraphModel dx="693" dy="3003" grid="1" gridSize="10" guides="1" tooltips="1" connect="1" arrows="1" fold="1" page="1" pageScale="1" pageWidth="827" pageHeight="1169" math="0" shadow="0">
      <root>
        <mxCell id="0" />
        <mxCell id="1" parent="0" />
        <mxCell id="ovNdQlZxgXla1siBlJx2-428" value="" style="rounded=0;whiteSpace=wrap;html=1;fillColor=#fff2cc;strokeColor=#d6b656;" vertex="1" parent="1">
          <mxGeometry x="400" y="1440" width="1000" height="1360" as="geometry" />
        </mxCell>
        <mxCell id="ovNdQlZxgXla1siBlJx2-358" value="" style="rounded=0;whiteSpace=wrap;html=1;fillColor=#dae8fc;strokeColor=#6c8ebf;" vertex="1" parent="1">
          <mxGeometry x="400" y="40" width="1000" height="1360" as="geometry" />
        </mxCell>
        <mxCell id="ovNdQlZxgXla1siBlJx2-357" value="" style="rounded=0;whiteSpace=wrap;html=1;fillColor=#f5f5f5;fontColor=#333333;strokeColor=#666666;" vertex="1" parent="1">
          <mxGeometry x="400" y="-1360" width="1000" height="1360" as="geometry" />
        </mxCell>
        <mxCell id="ovNdQlZxgXla1siBlJx2-106" value="" style="html=1;verticalLabelPosition=bottom;labelBackgroundColor=#ffffff;verticalAlign=top;shadow=0;dashed=0;strokeWidth=1;shape=mxgraph.ios7.misc.iphone;strokeColor=#c0c0c0;" vertex="1" parent="1">
          <mxGeometry x="919" y="80" width="200" height="400" as="geometry" />
        </mxCell>
        <mxCell id="ovNdQlZxgXla1siBlJx2-7" value="" style="html=1;verticalLabelPosition=bottom;labelBackgroundColor=#ffffff;verticalAlign=top;shadow=0;dashed=0;strokeWidth=1;shape=mxgraph.ios7.misc.iphone;strokeColor=#c0c0c0;" vertex="1" parent="1">
          <mxGeometry x="439" y="80" width="200" height="400" as="geometry" />
        </mxCell>
        <mxCell id="ovNdQlZxgXla1siBlJx2-17" value="" style="rounded=1;whiteSpace=wrap;html=1;" vertex="1" parent="1">
          <mxGeometry x="459" y="200" width="160" height="40" as="geometry" />
        </mxCell>
        <mxCell id="ovNdQlZxgXla1siBlJx2-433" style="edgeStyle=orthogonalEdgeStyle;rounded=0;orthogonalLoop=1;jettySize=auto;html=1;entryX=0;entryY=0.5;entryDx=0;entryDy=0;exitX=0.489;exitY=-0.001;exitDx=0;exitDy=0;exitPerimeter=0;" edge="1" parent="1" source="ovNdQlZxgXla1siBlJx2-1" target="ovNdQlZxgXla1siBlJx2-357">
          <mxGeometry relative="1" as="geometry" />
        </mxCell>
        <mxCell id="ovNdQlZxgXla1siBlJx2-1" value="" style="html=1;verticalLabelPosition=bottom;labelBackgroundColor=#ffffff;verticalAlign=top;shadow=0;dashed=0;strokeWidth=1;shape=mxgraph.ios7.misc.iphone;strokeColor=#c0c0c0;" vertex="1" parent="1">
          <mxGeometry x="109" y="80" width="200" height="400" as="geometry" />
        </mxCell>
        <mxCell id="ovNdQlZxgXla1siBlJx2-2" value="" style="rounded=0;whiteSpace=wrap;html=1;" vertex="1" parent="1">
          <mxGeometry x="122" y="380" width="174" height="40" as="geometry" />
        </mxCell>
        <mxCell id="ovNdQlZxgXla1siBlJx2-3" value="ホーム" style="text;html=1;align=center;verticalAlign=middle;whiteSpace=wrap;rounded=0;fontSize=8;" vertex="1" parent="1">
          <mxGeometry x="124" y="404" width="50" height="10" as="geometry" />
        </mxCell>
        <mxCell id="ovNdQlZxgXla1siBlJx2-4" value="予定" style="text;html=1;align=center;verticalAlign=middle;whiteSpace=wrap;rounded=0;fontSize=8;" vertex="1" parent="1">
          <mxGeometry x="169" y="404" width="20" height="10" as="geometry" />
        </mxCell>
        <mxCell id="ovNdQlZxgXla1siBlJx2-5" value="note" style="text;html=1;align=center;verticalAlign=middle;whiteSpace=wrap;rounded=0;fontSize=8;" vertex="1" parent="1">
          <mxGeometry x="193" y="404" width="30" height="10" as="geometry" />
        </mxCell>
        <mxCell id="ovNdQlZxgXla1siBlJx2-6" value="設定" style="text;html=1;align=center;verticalAlign=middle;whiteSpace=wrap;rounded=0;fontSize=8;" vertex="1" parent="1">
          <mxGeometry x="259" y="404" width="30" height="10" as="geometry" />
        </mxCell>
        <mxCell id="ovNdQlZxgXla1siBlJx2-8" value="いつか行きたいお店" style="text;html=1;align=center;verticalAlign=middle;whiteSpace=wrap;rounded=0;" vertex="1" parent="1">
          <mxGeometry x="465" y="140" width="150" height="30" as="geometry" />
        </mxCell>
        <mxCell id="ovNdQlZxgXla1siBlJx2-9" value="" style="html=1;verticalLabelPosition=bottom;labelBackgroundColor=#ffffff;verticalAlign=top;shadow=0;dashed=0;strokeWidth=2;shape=mxgraph.ios7.misc.left;strokeColor=#0080f0;" vertex="1" parent="1">
          <mxGeometry x="460" y="148" width="6" height="12" as="geometry" />
        </mxCell>
        <mxCell id="ovNdQlZxgXla1siBlJx2-11" value="エリアを選択" style="text;html=1;align=center;verticalAlign=middle;whiteSpace=wrap;rounded=0;fontSize=10;" vertex="1" parent="1">
          <mxGeometry x="489" y="170" width="100" height="20" as="geometry" />
        </mxCell>
        <mxCell id="ovNdQlZxgXla1siBlJx2-12" value="東京" style="text;html=1;align=left;verticalAlign=middle;whiteSpace=wrap;rounded=0;" vertex="1" parent="1">
          <mxGeometry x="465" y="205" width="60" height="30" as="geometry" />
        </mxCell>
        <mxCell id="ovNdQlZxgXla1siBlJx2-18" value="1件" style="text;html=1;align=left;verticalAlign=middle;whiteSpace=wrap;rounded=0;fontSize=8;" vertex="1" parent="1">
          <mxGeometry x="507" y="203" width="36" height="20" as="geometry" />
        </mxCell>
        <mxCell id="ovNdQlZxgXla1siBlJx2-19" value="いつか" style="text;html=1;align=center;verticalAlign=middle;whiteSpace=wrap;rounded=0;fontSize=8;" vertex="1" parent="1">
          <mxGeometry x="223" y="404" width="37" height="10" as="geometry" />
        </mxCell>
        <mxCell id="ovNdQlZxgXla1siBlJx2-20" value="&lt;font color=&quot;#3333ff&quot;&gt;削除&lt;/font&gt;" style="text;html=1;align=left;verticalAlign=middle;whiteSpace=wrap;rounded=0;fontSize=8;" vertex="1" parent="1">
          <mxGeometry x="590" y="221" width="20" height="20" as="geometry" />
        </mxCell>
        <mxCell id="ovNdQlZxgXla1siBlJx2-21" value="" style="rounded=1;whiteSpace=wrap;html=1;" vertex="1" parent="1">
          <mxGeometry x="459" y="252" width="160" height="40" as="geometry" />
        </mxCell>
        <mxCell id="ovNdQlZxgXla1siBlJx2-22" value="徳島" style="text;html=1;align=left;verticalAlign=middle;whiteSpace=wrap;rounded=0;" vertex="1" parent="1">
          <mxGeometry x="465" y="257" width="60" height="30" as="geometry" />
        </mxCell>
        <mxCell id="ovNdQlZxgXla1siBlJx2-23" value="1件" style="text;html=1;align=left;verticalAlign=middle;whiteSpace=wrap;rounded=0;fontSize=8;" vertex="1" parent="1">
          <mxGeometry x="507" y="255" width="36" height="20" as="geometry" />
        </mxCell>
        <mxCell id="ovNdQlZxgXla1siBlJx2-24" value="&lt;font color=&quot;#3333ff&quot;&gt;削除&lt;/font&gt;" style="text;html=1;align=left;verticalAlign=middle;whiteSpace=wrap;rounded=0;fontSize=8;" vertex="1" parent="1">
          <mxGeometry x="590" y="272" width="20" height="20" as="geometry" />
        </mxCell>
        <mxCell id="ovNdQlZxgXla1siBlJx2-25" value="" style="rounded=1;whiteSpace=wrap;html=1;" vertex="1" parent="1">
          <mxGeometry x="459" y="303" width="160" height="40" as="geometry" />
        </mxCell>
        <mxCell id="ovNdQlZxgXla1siBlJx2-26" value="香川" style="text;html=1;align=left;verticalAlign=middle;whiteSpace=wrap;rounded=0;" vertex="1" parent="1">
          <mxGeometry x="465" y="308" width="60" height="30" as="geometry" />
        </mxCell>
        <mxCell id="ovNdQlZxgXla1siBlJx2-27" value="1件" style="text;html=1;align=left;verticalAlign=middle;whiteSpace=wrap;rounded=0;fontSize=8;" vertex="1" parent="1">
          <mxGeometry x="507" y="306" width="36" height="20" as="geometry" />
        </mxCell>
        <mxCell id="ovNdQlZxgXla1siBlJx2-28" value="&lt;font color=&quot;#3333ff&quot;&gt;削除&lt;/font&gt;" style="text;html=1;align=left;verticalAlign=middle;whiteSpace=wrap;rounded=0;fontSize=8;" vertex="1" parent="1">
          <mxGeometry x="590" y="323" width="20" height="20" as="geometry" />
        </mxCell>
        <mxCell id="ovNdQlZxgXla1siBlJx2-29" value="" style="html=1;verticalLabelPosition=bottom;labelBackgroundColor=#ffffff;verticalAlign=top;shadow=0;dashed=0;strokeWidth=1;shape=mxgraph.ios7.misc.iphone;strokeColor=#c0c0c0;" vertex="1" parent="1">
          <mxGeometry x="440" y="1480" width="200" height="400" as="geometry" />
        </mxCell>
        <mxCell id="ovNdQlZxgXla1siBlJx2-30" value="" style="rounded=1;whiteSpace=wrap;html=1;" vertex="1" parent="1">
          <mxGeometry x="460" y="1600" width="160" height="40" as="geometry" />
        </mxCell>
        <mxCell id="ovNdQlZxgXla1siBlJx2-31" value="予定" style="text;html=1;align=center;verticalAlign=middle;whiteSpace=wrap;rounded=0;" vertex="1" parent="1">
          <mxGeometry x="510" y="1540" width="60" height="30" as="geometry" />
        </mxCell>
        <mxCell id="ovNdQlZxgXla1siBlJx2-32" value="" style="html=1;verticalLabelPosition=bottom;labelBackgroundColor=#ffffff;verticalAlign=top;shadow=0;dashed=0;strokeWidth=2;shape=mxgraph.ios7.misc.left;strokeColor=#0080f0;" vertex="1" parent="1">
          <mxGeometry x="461" y="1548" width="6" height="12" as="geometry" />
        </mxCell>
        <mxCell id="ovNdQlZxgXla1siBlJx2-34" value="9月3日" style="text;html=1;align=left;verticalAlign=middle;whiteSpace=wrap;rounded=0;" vertex="1" parent="1">
          <mxGeometry x="466" y="1605" width="60" height="30" as="geometry" />
        </mxCell>
        <mxCell id="ovNdQlZxgXla1siBlJx2-36" value="計: 3件" style="text;html=1;align=left;verticalAlign=middle;whiteSpace=wrap;rounded=0;fontSize=8;" vertex="1" parent="1">
          <mxGeometry x="534" y="1602" width="36" height="20" as="geometry" />
        </mxCell>
        <mxCell id="ovNdQlZxgXla1siBlJx2-37" value="&lt;font color=&quot;#3333ff&quot;&gt;削除&lt;/font&gt;" style="text;html=1;align=left;verticalAlign=middle;whiteSpace=wrap;rounded=0;fontSize=8;" vertex="1" parent="1">
          <mxGeometry x="590" y="1620" width="20" height="20" as="geometry" />
        </mxCell>
        <mxCell id="ovNdQlZxgXla1siBlJx2-38" value="" style="rounded=1;whiteSpace=wrap;html=1;" vertex="1" parent="1">
          <mxGeometry x="460" y="1649" width="160" height="40" as="geometry" />
        </mxCell>
        <mxCell id="ovNdQlZxgXla1siBlJx2-39" value="10月10日" style="text;html=1;align=left;verticalAlign=middle;whiteSpace=wrap;rounded=0;" vertex="1" parent="1">
          <mxGeometry x="466" y="1654" width="60" height="30" as="geometry" />
        </mxCell>
        <mxCell id="ovNdQlZxgXla1siBlJx2-41" value="&lt;font color=&quot;#3333ff&quot;&gt;削除&lt;/font&gt;" style="text;html=1;align=left;verticalAlign=middle;whiteSpace=wrap;rounded=0;fontSize=8;" vertex="1" parent="1">
          <mxGeometry x="590" y="1669" width="20" height="20" as="geometry" />
        </mxCell>
        <mxCell id="ovNdQlZxgXla1siBlJx2-42" value="" style="rounded=1;whiteSpace=wrap;html=1;" vertex="1" parent="1">
          <mxGeometry x="460" y="1698" width="160" height="40" as="geometry" />
        </mxCell>
        <mxCell id="ovNdQlZxgXla1siBlJx2-43" value="12月12日" style="text;html=1;align=left;verticalAlign=middle;whiteSpace=wrap;rounded=0;" vertex="1" parent="1">
          <mxGeometry x="466" y="1703" width="60" height="30" as="geometry" />
        </mxCell>
        <mxCell id="ovNdQlZxgXla1siBlJx2-44" value="1件" style="text;html=1;align=left;verticalAlign=middle;whiteSpace=wrap;rounded=0;fontSize=8;" vertex="1" parent="1">
          <mxGeometry x="508" y="1701" width="36" height="20" as="geometry" />
        </mxCell>
        <mxCell id="ovNdQlZxgXla1siBlJx2-45" value="&lt;font color=&quot;#3333ff&quot;&gt;削除&lt;/font&gt;" style="text;html=1;align=left;verticalAlign=middle;whiteSpace=wrap;rounded=0;fontSize=8;" vertex="1" parent="1">
          <mxGeometry x="590" y="1718" width="20" height="20" as="geometry" />
        </mxCell>
        <mxCell id="ovNdQlZxgXla1siBlJx2-47" value="済: 1件" style="text;html=1;align=left;verticalAlign=middle;whiteSpace=wrap;rounded=0;fontSize=8;" vertex="1" parent="1">
          <mxGeometry x="534" y="1619" width="36" height="20" as="geometry" />
        </mxCell>
        <mxCell id="ovNdQlZxgXla1siBlJx2-48" value="計: 3件" style="text;html=1;align=left;verticalAlign=middle;whiteSpace=wrap;rounded=0;fontSize=8;" vertex="1" parent="1">
          <mxGeometry x="534" y="1652" width="36" height="20" as="geometry" />
        </mxCell>
        <mxCell id="ovNdQlZxgXla1siBlJx2-49" value="済: 1件" style="text;html=1;align=left;verticalAlign=middle;whiteSpace=wrap;rounded=0;fontSize=8;" vertex="1" parent="1">
          <mxGeometry x="534" y="1669" width="36" height="20" as="geometry" />
        </mxCell>
        <mxCell id="ovNdQlZxgXla1siBlJx2-50" value="計: 3件" style="text;html=1;align=left;verticalAlign=middle;whiteSpace=wrap;rounded=0;fontSize=8;" vertex="1" parent="1">
          <mxGeometry x="534" y="1703" width="36" height="20" as="geometry" />
        </mxCell>
        <mxCell id="ovNdQlZxgXla1siBlJx2-51" value="済: 1件" style="text;html=1;align=left;verticalAlign=middle;whiteSpace=wrap;rounded=0;fontSize=8;" vertex="1" parent="1">
          <mxGeometry x="534" y="1720" width="36" height="20" as="geometry" />
        </mxCell>
        <mxCell id="ovNdQlZxgXla1siBlJx2-52" value="日程を選択" style="text;html=1;align=center;verticalAlign=middle;whiteSpace=wrap;rounded=0;fontSize=10;" vertex="1" parent="1">
          <mxGeometry x="490" y="1570.5" width="100" height="20" as="geometry" />
        </mxCell>
        <mxCell id="ovNdQlZxgXla1siBlJx2-70" value="" style="html=1;verticalLabelPosition=bottom;labelBackgroundColor=#ffffff;verticalAlign=top;shadow=0;dashed=0;strokeWidth=1;shape=mxgraph.ios7.misc.iphone;strokeColor=#c0c0c0;" vertex="1" parent="1">
          <mxGeometry x="679" y="80" width="200" height="400" as="geometry" />
        </mxCell>
        <mxCell id="ovNdQlZxgXla1siBlJx2-71" value="" style="rounded=1;whiteSpace=wrap;html=1;arcSize=8;fillColor=#ffe6cc;strokeColor=#d79b00;" vertex="1" parent="1">
          <mxGeometry x="129" y="150" width="160" height="70" as="geometry" />
        </mxCell>
        <mxCell id="ovNdQlZxgXla1siBlJx2-73" value="" style="rounded=1;whiteSpace=wrap;html=1;arcSize=8;fillColor=#d5e8d4;strokeColor=#82b366;" vertex="1" parent="1">
          <mxGeometry x="129" y="230" width="160" height="70" as="geometry" />
        </mxCell>
        <mxCell id="ovNdQlZxgXla1siBlJx2-75" value="9月3日 16:00" style="text;html=1;align=center;verticalAlign=middle;whiteSpace=wrap;rounded=0;fontSize=10;" vertex="1" parent="1">
          <mxGeometry x="215" y="156" width="65" height="20" as="geometry" />
        </mxCell>
        <mxCell id="ovNdQlZxgXla1siBlJx2-76" value="XXXXX 家" style="text;html=1;align=center;verticalAlign=middle;whiteSpace=wrap;rounded=0;fontSize=10;" vertex="1" parent="1">
          <mxGeometry x="194" y="278" width="70" height="20" as="geometry" />
        </mxCell>
        <mxCell id="ovNdQlZxgXla1siBlJx2-77" value="⭐️⭐️⭐️⭐️⭐️" style="text;html=1;align=center;verticalAlign=middle;whiteSpace=wrap;rounded=0;fontSize=10;" vertex="1" parent="1">
          <mxGeometry x="234" y="234.5" width="41" height="20" as="geometry" />
        </mxCell>
        <mxCell id="ovNdQlZxgXla1siBlJx2-78" value="マイベスト" style="text;html=1;align=center;verticalAlign=middle;whiteSpace=wrap;rounded=0;fontSize=10;" vertex="1" parent="1">
          <mxGeometry x="134" y="278" width="60" height="20" as="geometry" />
        </mxCell>
        <mxCell id="ovNdQlZxgXla1siBlJx2-79" value="XXXXX 家" style="text;html=1;align=center;verticalAlign=middle;whiteSpace=wrap;rounded=0;fontSize=10;" vertex="1" parent="1">
          <mxGeometry x="193" y="200" width="70" height="20" as="geometry" />
        </mxCell>
        <mxCell id="ovNdQlZxgXla1siBlJx2-80" value="次の予定" style="text;html=1;align=center;verticalAlign=middle;whiteSpace=wrap;rounded=0;fontSize=10;" vertex="1" parent="1">
          <mxGeometry x="133" y="200" width="60" height="20" as="geometry" />
        </mxCell>
        <mxCell id="ovNdQlZxgXla1siBlJx2-81" value="XXXX家" style="text;html=1;align=left;verticalAlign=middle;whiteSpace=wrap;rounded=0;" vertex="1" parent="1">
          <mxGeometry x="739" y="178" width="70" height="30" as="geometry" />
        </mxCell>
        <mxCell id="ovNdQlZxgXla1siBlJx2-82" value="画像" style="text;html=1;align=left;verticalAlign=middle;whiteSpace=wrap;rounded=0;fillColor=#e1d5e7;strokeColor=#9673a6;" vertex="1" parent="1">
          <mxGeometry x="699" y="178" width="30" height="30" as="geometry" />
        </mxCell>
        <mxCell id="ovNdQlZxgXla1siBlJx2-83" value="東京" style="text;html=1;align=center;verticalAlign=middle;whiteSpace=wrap;rounded=0;" vertex="1" parent="1">
          <mxGeometry x="706.5" y="140" width="150" height="30" as="geometry" />
        </mxCell>
        <mxCell id="ovNdQlZxgXla1siBlJx2-84" value="" style="html=1;verticalLabelPosition=bottom;labelBackgroundColor=#ffffff;verticalAlign=top;shadow=0;dashed=0;strokeWidth=2;shape=mxgraph.ios7.misc.left;strokeColor=#0080f0;" vertex="1" parent="1">
          <mxGeometry x="701.5" y="148" width="6" height="12" as="geometry" />
        </mxCell>
        <mxCell id="ovNdQlZxgXla1siBlJx2-85" value="❤️❤️❤️" style="text;html=1;align=left;verticalAlign=middle;whiteSpace=wrap;rounded=0;" vertex="1" parent="1">
          <mxGeometry x="809" y="178" width="50" height="30" as="geometry" />
        </mxCell>
        <mxCell id="ovNdQlZxgXla1siBlJx2-86" value="XXXX家" style="text;html=1;align=left;verticalAlign=middle;whiteSpace=wrap;rounded=0;" vertex="1" parent="1">
          <mxGeometry x="739" y="216" width="70" height="30" as="geometry" />
        </mxCell>
        <mxCell id="ovNdQlZxgXla1siBlJx2-87" value="画像" style="text;html=1;align=left;verticalAlign=middle;whiteSpace=wrap;rounded=0;fillColor=#e1d5e7;strokeColor=#9673a6;" vertex="1" parent="1">
          <mxGeometry x="699" y="216" width="30" height="30" as="geometry" />
        </mxCell>
        <mxCell id="ovNdQlZxgXla1siBlJx2-88" value="❤️❤️❤️" style="text;html=1;align=left;verticalAlign=middle;whiteSpace=wrap;rounded=0;" vertex="1" parent="1">
          <mxGeometry x="809" y="216" width="50" height="30" as="geometry" />
        </mxCell>
        <mxCell id="ovNdQlZxgXla1siBlJx2-89" value="XXXX家" style="text;html=1;align=left;verticalAlign=middle;whiteSpace=wrap;rounded=0;" vertex="1" parent="1">
          <mxGeometry x="739" y="255" width="70" height="30" as="geometry" />
        </mxCell>
        <mxCell id="ovNdQlZxgXla1siBlJx2-90" value="画像" style="text;html=1;align=left;verticalAlign=middle;whiteSpace=wrap;rounded=0;fillColor=#e1d5e7;strokeColor=#9673a6;" vertex="1" parent="1">
          <mxGeometry x="699" y="255" width="30" height="30" as="geometry" />
        </mxCell>
        <mxCell id="ovNdQlZxgXla1siBlJx2-91" value="❤️❤️" style="text;html=1;align=left;verticalAlign=middle;whiteSpace=wrap;rounded=0;" vertex="1" parent="1">
          <mxGeometry x="809" y="255" width="50" height="30" as="geometry" />
        </mxCell>
        <mxCell id="ovNdQlZxgXla1siBlJx2-110" value="" style="html=1;verticalLabelPosition=bottom;labelBackgroundColor=#ffffff;verticalAlign=top;shadow=0;dashed=0;strokeWidth=2;shape=mxgraph.ios7.misc.left;strokeColor=#0080f0;" vertex="1" parent="1">
          <mxGeometry x="941.5" y="148" width="6" height="12" as="geometry" />
        </mxCell>
        <mxCell id="ovNdQlZxgXla1siBlJx2-120" value="行きたい" style="text;html=1;align=left;verticalAlign=middle;whiteSpace=wrap;rounded=0;fontSize=13;" vertex="1" parent="1">
          <mxGeometry x="933" y="256" width="70" height="20" as="geometry" />
        </mxCell>
        <mxCell id="ovNdQlZxgXla1siBlJx2-121" value="&lt;font color=&quot;#007fff&quot;&gt;地図&lt;/font&gt;" style="text;html=1;align=left;verticalAlign=middle;whiteSpace=wrap;rounded=0;fontSize=13;" vertex="1" parent="1">
          <mxGeometry x="932" y="230" width="70" height="23" as="geometry" />
        </mxCell>
        <mxCell id="ovNdQlZxgXla1siBlJx2-125" value="最寄り駅" style="text;html=1;align=left;verticalAlign=middle;whiteSpace=wrap;rounded=0;fontSize=13;" vertex="1" parent="1">
          <mxGeometry x="932" y="283" width="70" height="20" as="geometry" />
        </mxCell>
        <mxCell id="ovNdQlZxgXla1siBlJx2-140" value="系統" style="text;html=1;align=left;verticalAlign=middle;whiteSpace=wrap;rounded=0;fontSize=13;" vertex="1" parent="1">
          <mxGeometry x="933" y="310" width="70" height="20" as="geometry" />
        </mxCell>
        <mxCell id="ovNdQlZxgXla1siBlJx2-145" value="" style="html=1;verticalLabelPosition=bottom;labelBackgroundColor=#ffffff;verticalAlign=top;shadow=0;dashed=0;strokeWidth=1;shape=mxgraph.ios7.misc.iphone;strokeColor=#c0c0c0;" vertex="1" parent="1">
          <mxGeometry x="919" y="517" width="200" height="400" as="geometry" />
        </mxCell>
        <mxCell id="ovNdQlZxgXla1siBlJx2-146" value="" style="rounded=0;whiteSpace=wrap;html=1;fillColor=#f8cecc;strokeColor=#b85450;" vertex="1" parent="1">
          <mxGeometry x="931" y="577" width="175" height="100" as="geometry" />
        </mxCell>
        <mxCell id="ovNdQlZxgXla1siBlJx2-147" value="XXXX家" style="text;html=1;align=center;verticalAlign=middle;whiteSpace=wrap;rounded=0;" vertex="1" parent="1">
          <mxGeometry x="931" y="647" width="90" height="30" as="geometry" />
        </mxCell>
        <mxCell id="ovNdQlZxgXla1siBlJx2-148" value="" style="html=1;verticalLabelPosition=bottom;labelBackgroundColor=#ffffff;verticalAlign=top;shadow=0;dashed=0;strokeWidth=2;shape=mxgraph.ios7.misc.left;strokeColor=#0080f0;" vertex="1" parent="1">
          <mxGeometry x="941.5" y="585" width="6" height="12" as="geometry" />
        </mxCell>
        <mxCell id="ovNdQlZxgXla1siBlJx2-149" value="行きたい度" style="text;html=1;align=left;verticalAlign=middle;whiteSpace=wrap;rounded=0;" vertex="1" parent="1">
          <mxGeometry x="931" y="742" width="70" height="20" as="geometry" />
        </mxCell>
        <mxCell id="ovNdQlZxgXla1siBlJx2-150" value="&lt;font color=&quot;#3399ff&quot;&gt;地図&lt;/font&gt;" style="text;html=1;align=left;verticalAlign=middle;whiteSpace=wrap;rounded=0;" vertex="1" parent="1">
          <mxGeometry x="932" y="762" width="70" height="23" as="geometry" />
        </mxCell>
        <mxCell id="ovNdQlZxgXla1siBlJx2-151" value="予定追加" style="rounded=1;whiteSpace=wrap;html=1;fontSize=10;fillColor=#a20025;fontColor=#ffffff;strokeColor=#6F0000;" vertex="1" parent="1">
          <mxGeometry x="938" y="683" width="48" height="26" as="geometry" />
        </mxCell>
        <mxCell id="ovNdQlZxgXla1siBlJx2-152" value="🤍🤍🤍" style="text;html=1;align=left;verticalAlign=middle;whiteSpace=wrap;rounded=0;" vertex="1" parent="1">
          <mxGeometry x="1039" y="742" width="50" height="22" as="geometry" />
        </mxCell>
        <mxCell id="ovNdQlZxgXla1siBlJx2-153" value="最寄り駅" style="text;html=1;align=left;verticalAlign=middle;whiteSpace=wrap;rounded=0;" vertex="1" parent="1">
          <mxGeometry x="932" y="785" width="70" height="20" as="geometry" />
        </mxCell>
        <mxCell id="ovNdQlZxgXla1siBlJx2-154" value="JR渋谷駅" style="text;html=1;align=left;verticalAlign=middle;whiteSpace=wrap;rounded=0;" vertex="1" parent="1">
          <mxGeometry x="1039" y="785" width="70" height="22" as="geometry" />
        </mxCell>
        <mxCell id="ovNdQlZxgXla1siBlJx2-156" value="来店済" style="rounded=1;whiteSpace=wrap;html=1;fontSize=10;fillColor=#a20025;strokeColor=#6F0000;fontColor=#ffffff;" vertex="1" parent="1">
          <mxGeometry x="995" y="683" width="48" height="26" as="geometry" />
        </mxCell>
        <mxCell id="ovNdQlZxgXla1siBlJx2-157" value="系統" style="text;html=1;align=left;verticalAlign=middle;whiteSpace=wrap;rounded=0;" vertex="1" parent="1">
          <mxGeometry x="932" y="805" width="70" height="20" as="geometry" />
        </mxCell>
        <mxCell id="ovNdQlZxgXla1siBlJx2-158" value="家系" style="text;html=1;align=left;verticalAlign=middle;whiteSpace=wrap;rounded=0;" vertex="1" parent="1">
          <mxGeometry x="1039" y="805" width="70" height="22" as="geometry" />
        </mxCell>
        <mxCell id="ovNdQlZxgXla1siBlJx2-159" value="編集" style="rounded=1;whiteSpace=wrap;html=1;fontSize=10;fillColor=#a20025;fontColor=#ffffff;strokeColor=#6F0000;" vertex="1" parent="1">
          <mxGeometry x="1052" y="682.5" width="48" height="26" as="geometry" />
        </mxCell>
        <mxCell id="ovNdQlZxgXla1siBlJx2-160" value="&lt;font color=&quot;#3399ff&quot;&gt;Webサイト&lt;/font&gt;" style="text;html=1;align=left;verticalAlign=middle;whiteSpace=wrap;rounded=0;" vertex="1" parent="1">
          <mxGeometry x="932" y="721" width="70" height="20" as="geometry" />
        </mxCell>
        <mxCell id="ovNdQlZxgXla1siBlJx2-163" value="登録" style="text;html=1;align=center;verticalAlign=middle;whiteSpace=wrap;rounded=0;" vertex="1" parent="1">
          <mxGeometry x="945.5" y="140" width="150" height="30" as="geometry" />
        </mxCell>
        <mxCell id="ovNdQlZxgXla1siBlJx2-164" value="名前" style="text;html=1;align=left;verticalAlign=middle;whiteSpace=wrap;rounded=0;fontSize=13;" vertex="1" parent="1">
          <mxGeometry x="933" y="177" width="70" height="23" as="geometry" />
        </mxCell>
        <mxCell id="ovNdQlZxgXla1siBlJx2-166" value="" style="rounded=0;whiteSpace=wrap;html=1;" vertex="1" parent="1">
          <mxGeometry x="1001" y="177" width="101" height="23" as="geometry" />
        </mxCell>
        <mxCell id="ovNdQlZxgXla1siBlJx2-171" value="" style="rounded=0;whiteSpace=wrap;html=1;" vertex="1" parent="1">
          <mxGeometry x="1000" y="281.5" width="101" height="23" as="geometry" />
        </mxCell>
        <mxCell id="ovNdQlZxgXla1siBlJx2-184" value="登録する" style="rounded=1;whiteSpace=wrap;html=1;fillColor=#a20025;fontColor=#ffffff;strokeColor=#6F0000;" vertex="1" parent="1">
          <mxGeometry x="943" y="385" width="157" height="25" as="geometry" />
        </mxCell>
        <mxCell id="ovNdQlZxgXla1siBlJx2-202" value="" style="html=1;verticalLabelPosition=bottom;labelBackgroundColor=#ffffff;verticalAlign=top;shadow=0;dashed=0;strokeWidth=2;shape=mxgraph.ios7.misc.left;strokeColor=#FFFFFF;fontSize=9;" vertex="1" parent="1">
          <mxGeometry x="938" y="627" width="4" height="6" as="geometry" />
        </mxCell>
        <mxCell id="ovNdQlZxgXla1siBlJx2-203" value="" style="html=1;verticalLabelPosition=bottom;labelBackgroundColor=#ffffff;verticalAlign=top;shadow=0;dashed=0;strokeWidth=2;shape=mxgraph.ios7.misc.left;strokeColor=#FFFFFF;fontSize=9;rotation=-180;" vertex="1" parent="1">
          <mxGeometry x="1095" y="628" width="4" height="6" as="geometry" />
        </mxCell>
        <mxCell id="ovNdQlZxgXla1siBlJx2-206" value="&lt;p style=&quot;line-height: 100%;&quot;&gt;&lt;font style=&quot;font-size: 30px;&quot;&gt;+&lt;/font&gt;&lt;/p&gt;" style="ellipse;whiteSpace=wrap;html=1;aspect=fixed;fillColor=#a20025;fontColor=#ffffff;strokeColor=#6F0000;" vertex="1" parent="1">
          <mxGeometry x="826" y="380" width="30" height="30" as="geometry" />
        </mxCell>
        <mxCell id="ovNdQlZxgXla1siBlJx2-207" value="&lt;p style=&quot;line-height: 100%;&quot;&gt;&lt;font style=&quot;font-size: 30px;&quot;&gt;+&lt;/font&gt;&lt;/p&gt;" style="ellipse;whiteSpace=wrap;html=1;aspect=fixed;fillColor=#a20025;fontColor=#ffffff;strokeColor=#6F0000;" vertex="1" parent="1">
          <mxGeometry x="586" y="382.5" width="30" height="30" as="geometry" />
        </mxCell>
        <mxCell id="ovNdQlZxgXla1siBlJx2-209" value="&lt;p style=&quot;line-height: 100%;&quot;&gt;&lt;font style=&quot;font-size: 30px;&quot;&gt;+&lt;/font&gt;&lt;/p&gt;" style="ellipse;whiteSpace=wrap;html=1;aspect=fixed;fillColor=#a20025;fontColor=#ffffff;strokeColor=#6F0000;" vertex="1" parent="1">
          <mxGeometry x="586" y="1780" width="30" height="30" as="geometry" />
        </mxCell>
        <mxCell id="ovNdQlZxgXla1siBlJx2-240" value="" style="html=1;verticalLabelPosition=bottom;labelBackgroundColor=#ffffff;verticalAlign=top;shadow=0;dashed=0;strokeWidth=1;shape=mxgraph.ios7.misc.iphone;strokeColor=#c0c0c0;" vertex="1" parent="1">
          <mxGeometry x="440" y="-1320" width="200" height="400" as="geometry" />
        </mxCell>
        <mxCell id="ovNdQlZxgXla1siBlJx2-241" value="" style="rounded=1;whiteSpace=wrap;html=1;" vertex="1" parent="1">
          <mxGeometry x="460" y="-1200" width="160" height="40" as="geometry" />
        </mxCell>
        <mxCell id="ovNdQlZxgXla1siBlJx2-242" value="記録" style="text;html=1;align=center;verticalAlign=middle;whiteSpace=wrap;rounded=0;" vertex="1" parent="1">
          <mxGeometry x="466" y="-1260" width="150" height="30" as="geometry" />
        </mxCell>
        <mxCell id="ovNdQlZxgXla1siBlJx2-243" value="" style="html=1;verticalLabelPosition=bottom;labelBackgroundColor=#ffffff;verticalAlign=top;shadow=0;dashed=0;strokeWidth=2;shape=mxgraph.ios7.misc.left;strokeColor=#0080f0;" vertex="1" parent="1">
          <mxGeometry x="461" y="-1252" width="6" height="12" as="geometry" />
        </mxCell>
        <mxCell id="ovNdQlZxgXla1siBlJx2-244" value="エリアを選択" style="text;html=1;align=center;verticalAlign=middle;whiteSpace=wrap;rounded=0;fontSize=10;" vertex="1" parent="1">
          <mxGeometry x="490" y="-1230" width="100" height="20" as="geometry" />
        </mxCell>
        <mxCell id="ovNdQlZxgXla1siBlJx2-245" value="東京" style="text;html=1;align=left;verticalAlign=middle;whiteSpace=wrap;rounded=0;" vertex="1" parent="1">
          <mxGeometry x="466" y="-1195" width="60" height="30" as="geometry" />
        </mxCell>
        <mxCell id="ovNdQlZxgXla1siBlJx2-246" value="1件" style="text;html=1;align=left;verticalAlign=middle;whiteSpace=wrap;rounded=0;fontSize=8;" vertex="1" parent="1">
          <mxGeometry x="508" y="-1197" width="36" height="20" as="geometry" />
        </mxCell>
        <mxCell id="ovNdQlZxgXla1siBlJx2-247" value="&lt;font color=&quot;#3333ff&quot;&gt;削除&lt;/font&gt;" style="text;html=1;align=left;verticalAlign=middle;whiteSpace=wrap;rounded=0;fontSize=8;" vertex="1" parent="1">
          <mxGeometry x="550" y="-1179" width="20" height="20" as="geometry" />
        </mxCell>
        <mxCell id="ovNdQlZxgXla1siBlJx2-248" value="" style="rounded=1;whiteSpace=wrap;html=1;" vertex="1" parent="1">
          <mxGeometry x="460" y="-1148" width="160" height="40" as="geometry" />
        </mxCell>
        <mxCell id="ovNdQlZxgXla1siBlJx2-249" value="徳島" style="text;html=1;align=left;verticalAlign=middle;whiteSpace=wrap;rounded=0;" vertex="1" parent="1">
          <mxGeometry x="466" y="-1143" width="60" height="30" as="geometry" />
        </mxCell>
        <mxCell id="ovNdQlZxgXla1siBlJx2-250" value="1件" style="text;html=1;align=left;verticalAlign=middle;whiteSpace=wrap;rounded=0;fontSize=8;" vertex="1" parent="1">
          <mxGeometry x="508" y="-1145" width="36" height="20" as="geometry" />
        </mxCell>
        <mxCell id="ovNdQlZxgXla1siBlJx2-251" value="&lt;font color=&quot;#3333ff&quot;&gt;削除&lt;/font&gt;" style="text;html=1;align=left;verticalAlign=middle;whiteSpace=wrap;rounded=0;fontSize=8;" vertex="1" parent="1">
          <mxGeometry x="550" y="-1127" width="20" height="20" as="geometry" />
        </mxCell>
        <mxCell id="ovNdQlZxgXla1siBlJx2-252" value="" style="rounded=1;whiteSpace=wrap;html=1;" vertex="1" parent="1">
          <mxGeometry x="460" y="-1096" width="160" height="40" as="geometry" />
        </mxCell>
        <mxCell id="ovNdQlZxgXla1siBlJx2-253" value="香川" style="text;html=1;align=left;verticalAlign=middle;whiteSpace=wrap;rounded=0;" vertex="1" parent="1">
          <mxGeometry x="466" y="-1091" width="60" height="30" as="geometry" />
        </mxCell>
        <mxCell id="ovNdQlZxgXla1siBlJx2-254" value="1件" style="text;html=1;align=left;verticalAlign=middle;whiteSpace=wrap;rounded=0;fontSize=8;" vertex="1" parent="1">
          <mxGeometry x="508" y="-1093" width="36" height="20" as="geometry" />
        </mxCell>
        <mxCell id="ovNdQlZxgXla1siBlJx2-255" value="&lt;font color=&quot;#3333ff&quot;&gt;削除&lt;/font&gt;" style="text;html=1;align=left;verticalAlign=middle;whiteSpace=wrap;rounded=0;fontSize=8;" vertex="1" parent="1">
          <mxGeometry x="550" y="-1075" width="20" height="20" as="geometry" />
        </mxCell>
        <mxCell id="ovNdQlZxgXla1siBlJx2-256" value="" style="html=1;verticalLabelPosition=bottom;labelBackgroundColor=#ffffff;verticalAlign=top;shadow=0;dashed=0;strokeWidth=1;shape=mxgraph.ios7.misc.iphone;strokeColor=#c0c0c0;" vertex="1" parent="1">
          <mxGeometry x="680" y="-1320" width="200" height="400" as="geometry" />
        </mxCell>
        <mxCell id="ovNdQlZxgXla1siBlJx2-257" value="XXXX家" style="text;html=1;align=left;verticalAlign=middle;whiteSpace=wrap;rounded=0;" vertex="1" parent="1">
          <mxGeometry x="740" y="-1222" width="70" height="30" as="geometry" />
        </mxCell>
        <mxCell id="ovNdQlZxgXla1siBlJx2-258" value="画像" style="text;html=1;align=left;verticalAlign=middle;whiteSpace=wrap;rounded=0;fillColor=#e1d5e7;strokeColor=#9673a6;" vertex="1" parent="1">
          <mxGeometry x="700" y="-1222" width="30" height="30" as="geometry" />
        </mxCell>
        <mxCell id="ovNdQlZxgXla1siBlJx2-259" value="東京" style="text;html=1;align=center;verticalAlign=middle;whiteSpace=wrap;rounded=0;" vertex="1" parent="1">
          <mxGeometry x="707.5" y="-1260" width="150" height="30" as="geometry" />
        </mxCell>
        <mxCell id="ovNdQlZxgXla1siBlJx2-260" value="" style="html=1;verticalLabelPosition=bottom;labelBackgroundColor=#ffffff;verticalAlign=top;shadow=0;dashed=0;strokeWidth=2;shape=mxgraph.ios7.misc.left;strokeColor=#0080f0;" vertex="1" parent="1">
          <mxGeometry x="702.5" y="-1252" width="6" height="12" as="geometry" />
        </mxCell>
        <mxCell id="ovNdQlZxgXla1siBlJx2-261" value="&lt;span style=&quot;font-size: 10px; text-align: center;&quot;&gt;⭐️⭐️⭐️⭐️⭐️&lt;/span&gt;" style="text;html=1;align=left;verticalAlign=middle;whiteSpace=wrap;rounded=0;" vertex="1" parent="1">
          <mxGeometry x="810" y="-1222" width="50" height="30" as="geometry" />
        </mxCell>
        <mxCell id="ovNdQlZxgXla1siBlJx2-262" value="XXXX家" style="text;html=1;align=left;verticalAlign=middle;whiteSpace=wrap;rounded=0;" vertex="1" parent="1">
          <mxGeometry x="740" y="-1184" width="70" height="30" as="geometry" />
        </mxCell>
        <mxCell id="ovNdQlZxgXla1siBlJx2-263" value="画像" style="text;html=1;align=left;verticalAlign=middle;whiteSpace=wrap;rounded=0;fillColor=#e1d5e7;strokeColor=#9673a6;" vertex="1" parent="1">
          <mxGeometry x="700" y="-1184" width="30" height="30" as="geometry" />
        </mxCell>
        <mxCell id="ovNdQlZxgXla1siBlJx2-264" value="&lt;span style=&quot;font-size: 10px; text-align: center;&quot;&gt;⭐️⭐️⭐️&lt;/span&gt;" style="text;html=1;align=left;verticalAlign=middle;whiteSpace=wrap;rounded=0;" vertex="1" parent="1">
          <mxGeometry x="810" y="-1184" width="50" height="30" as="geometry" />
        </mxCell>
        <mxCell id="ovNdQlZxgXla1siBlJx2-265" value="XXXX家" style="text;html=1;align=left;verticalAlign=middle;whiteSpace=wrap;rounded=0;" vertex="1" parent="1">
          <mxGeometry x="740" y="-1145" width="70" height="30" as="geometry" />
        </mxCell>
        <mxCell id="ovNdQlZxgXla1siBlJx2-266" value="画像" style="text;html=1;align=left;verticalAlign=middle;whiteSpace=wrap;rounded=0;fillColor=#e1d5e7;strokeColor=#9673a6;" vertex="1" parent="1">
          <mxGeometry x="700" y="-1145" width="30" height="30" as="geometry" />
        </mxCell>
        <mxCell id="ovNdQlZxgXla1siBlJx2-267" value="&lt;span style=&quot;font-size: 10px; text-align: center;&quot;&gt;⭐️&lt;/span&gt;" style="text;html=1;align=left;verticalAlign=middle;whiteSpace=wrap;rounded=0;" vertex="1" parent="1">
          <mxGeometry x="810" y="-1145" width="50" height="30" as="geometry" />
        </mxCell>
        <mxCell id="ovNdQlZxgXla1siBlJx2-268" value="&lt;p style=&quot;line-height: 100%;&quot;&gt;&lt;font style=&quot;font-size: 30px;&quot;&gt;+&lt;/font&gt;&lt;/p&gt;" style="ellipse;whiteSpace=wrap;html=1;aspect=fixed;fillColor=#a20025;fontColor=#ffffff;strokeColor=#6F0000;" vertex="1" parent="1">
          <mxGeometry x="585" y="-1020" width="30" height="30" as="geometry" />
        </mxCell>
        <mxCell id="ovNdQlZxgXla1siBlJx2-269" value="&lt;p style=&quot;line-height: 100%;&quot;&gt;&lt;font style=&quot;font-size: 30px;&quot;&gt;+&lt;/font&gt;&lt;/p&gt;" style="ellipse;whiteSpace=wrap;html=1;aspect=fixed;fillColor=#a20025;fontColor=#ffffff;strokeColor=#6F0000;" vertex="1" parent="1">
          <mxGeometry x="827" y="-1020" width="30" height="30" as="geometry" />
        </mxCell>
        <mxCell id="ovNdQlZxgXla1siBlJx2-270" value="" style="html=1;verticalLabelPosition=bottom;labelBackgroundColor=#ffffff;verticalAlign=top;shadow=0;dashed=0;strokeWidth=1;shape=mxgraph.ios7.misc.iphone;strokeColor=#c0c0c0;" vertex="1" parent="1">
          <mxGeometry x="919" y="-1320" width="200" height="400" as="geometry" />
        </mxCell>
        <mxCell id="ovNdQlZxgXla1siBlJx2-271" value="" style="html=1;verticalLabelPosition=bottom;labelBackgroundColor=#ffffff;verticalAlign=top;shadow=0;dashed=0;strokeWidth=2;shape=mxgraph.ios7.misc.left;strokeColor=#0080f0;" vertex="1" parent="1">
          <mxGeometry x="941.5" y="-1252" width="6" height="12" as="geometry" />
        </mxCell>
        <mxCell id="ovNdQlZxgXla1siBlJx2-272" value="評価" style="text;html=1;align=left;verticalAlign=middle;whiteSpace=wrap;rounded=0;fontSize=13;" vertex="1" parent="1">
          <mxGeometry x="933" y="-1136.5" width="60" height="20" as="geometry" />
        </mxCell>
        <mxCell id="ovNdQlZxgXla1siBlJx2-273" value="&lt;font color=&quot;#007fff&quot;&gt;地図&lt;/font&gt;" style="text;html=1;align=left;verticalAlign=middle;whiteSpace=wrap;rounded=0;fontSize=13;" vertex="1" parent="1">
          <mxGeometry x="933" y="-1167" width="70" height="23" as="geometry" />
        </mxCell>
        <mxCell id="ovNdQlZxgXla1siBlJx2-275" value="最寄り駅" style="text;html=1;align=left;verticalAlign=middle;whiteSpace=wrap;rounded=0;fontSize=13;" vertex="1" parent="1">
          <mxGeometry x="933" y="-1108" width="70" height="20" as="geometry" />
        </mxCell>
        <mxCell id="ovNdQlZxgXla1siBlJx2-276" value="系統" style="text;html=1;align=left;verticalAlign=middle;whiteSpace=wrap;rounded=0;fontSize=13;" vertex="1" parent="1">
          <mxGeometry x="933" y="-1081" width="70" height="20" as="geometry" />
        </mxCell>
        <mxCell id="ovNdQlZxgXla1siBlJx2-277" value="登録" style="text;html=1;align=center;verticalAlign=middle;whiteSpace=wrap;rounded=0;" vertex="1" parent="1">
          <mxGeometry x="945.5" y="-1260" width="150" height="30" as="geometry" />
        </mxCell>
        <mxCell id="ovNdQlZxgXla1siBlJx2-278" value="名前" style="text;html=1;align=left;verticalAlign=middle;whiteSpace=wrap;rounded=0;fontSize=13;" vertex="1" parent="1">
          <mxGeometry x="933" y="-1223" width="70" height="23" as="geometry" />
        </mxCell>
        <mxCell id="ovNdQlZxgXla1siBlJx2-279" value="" style="rounded=0;whiteSpace=wrap;html=1;" vertex="1" parent="1">
          <mxGeometry x="1001" y="-1223" width="101" height="23" as="geometry" />
        </mxCell>
        <mxCell id="ovNdQlZxgXla1siBlJx2-283" value="" style="rounded=0;whiteSpace=wrap;html=1;" vertex="1" parent="1">
          <mxGeometry x="1000" y="-1111.5" width="101" height="23" as="geometry" />
        </mxCell>
        <mxCell id="ovNdQlZxgXla1siBlJx2-285" value="写真1" style="text;html=1;align=left;verticalAlign=middle;whiteSpace=wrap;rounded=0;fontSize=13;" vertex="1" parent="1">
          <mxGeometry x="933" y="-1055" width="70" height="20" as="geometry" />
        </mxCell>
        <mxCell id="ovNdQlZxgXla1siBlJx2-286" value="&lt;font color=&quot;#3399ff&quot;&gt;選択&lt;/font&gt;" style="text;html=1;align=left;verticalAlign=middle;whiteSpace=wrap;rounded=0;fontSize=12;" vertex="1" parent="1">
          <mxGeometry x="1000.5" y="-1056.5" width="39" height="23" as="geometry" />
        </mxCell>
        <mxCell id="ovNdQlZxgXla1siBlJx2-287" value="No Image" style="rounded=0;whiteSpace=wrap;html=1;" vertex="1" parent="1">
          <mxGeometry x="1052" y="-1054" width="48" height="48" as="geometry" />
        </mxCell>
        <mxCell id="ovNdQlZxgXla1siBlJx2-288" value="" style="html=1;verticalLabelPosition=bottom;labelBackgroundColor=#ffffff;verticalAlign=top;shadow=0;dashed=0;strokeWidth=1;shape=mxgraph.ios7.misc.iphone;strokeColor=#c0c0c0;" vertex="1" parent="1">
          <mxGeometry x="1159" y="-1320" width="200" height="400" as="geometry" />
        </mxCell>
        <mxCell id="ovNdQlZxgXla1siBlJx2-289" value="" style="html=1;verticalLabelPosition=bottom;labelBackgroundColor=#ffffff;verticalAlign=top;shadow=0;dashed=0;strokeWidth=2;shape=mxgraph.ios7.misc.left;strokeColor=#0080f0;" vertex="1" parent="1">
          <mxGeometry x="1181.5" y="-1252" width="6" height="12" as="geometry" />
        </mxCell>
        <mxCell id="ovNdQlZxgXla1siBlJx2-290" value="登録する" style="rounded=1;whiteSpace=wrap;html=1;fillColor=#a20025;fontColor=#ffffff;strokeColor=#6F0000;" vertex="1" parent="1">
          <mxGeometry x="1182" y="-1015" width="157" height="25" as="geometry" />
        </mxCell>
        <mxCell id="ovNdQlZxgXla1siBlJx2-291" value="登録" style="text;html=1;align=center;verticalAlign=middle;whiteSpace=wrap;rounded=0;" vertex="1" parent="1">
          <mxGeometry x="1185.5" y="-1260" width="150" height="30" as="geometry" />
        </mxCell>
        <mxCell id="ovNdQlZxgXla1siBlJx2-292" value="写真2" style="text;html=1;align=left;verticalAlign=middle;whiteSpace=wrap;rounded=0;fontSize=13;" vertex="1" parent="1">
          <mxGeometry x="1173" y="-1224" width="70" height="20" as="geometry" />
        </mxCell>
        <mxCell id="ovNdQlZxgXla1siBlJx2-293" value="&lt;font color=&quot;#3399ff&quot;&gt;選択&lt;/font&gt;" style="text;html=1;align=left;verticalAlign=middle;whiteSpace=wrap;rounded=0;fontSize=12;" vertex="1" parent="1">
          <mxGeometry x="1240.5" y="-1225.5" width="39" height="23" as="geometry" />
        </mxCell>
        <mxCell id="ovNdQlZxgXla1siBlJx2-294" value="No Image" style="rounded=0;whiteSpace=wrap;html=1;" vertex="1" parent="1">
          <mxGeometry x="1292" y="-1220" width="48" height="48" as="geometry" />
        </mxCell>
        <mxCell id="ovNdQlZxgXla1siBlJx2-295" value="写真3" style="text;html=1;align=left;verticalAlign=middle;whiteSpace=wrap;rounded=0;fontSize=13;" vertex="1" parent="1">
          <mxGeometry x="1172" y="-1169.5" width="70" height="20" as="geometry" />
        </mxCell>
        <mxCell id="ovNdQlZxgXla1siBlJx2-296" value="&lt;font color=&quot;#3399ff&quot;&gt;選択&lt;/font&gt;" style="text;html=1;align=left;verticalAlign=middle;whiteSpace=wrap;rounded=0;fontSize=12;" vertex="1" parent="1">
          <mxGeometry x="1239.5" y="-1171" width="39" height="23" as="geometry" />
        </mxCell>
        <mxCell id="ovNdQlZxgXla1siBlJx2-297" value="No Image" style="rounded=0;whiteSpace=wrap;html=1;" vertex="1" parent="1">
          <mxGeometry x="1292" y="-1166.5" width="48" height="48" as="geometry" />
        </mxCell>
        <mxCell id="ovNdQlZxgXla1siBlJx2-298" value="" style="html=1;verticalLabelPosition=bottom;labelBackgroundColor=#ffffff;verticalAlign=top;shadow=0;dashed=0;strokeWidth=1;shape=mxgraph.ios7.misc.iphone;strokeColor=#c0c0c0;" vertex="1" parent="1">
          <mxGeometry x="919" y="-880" width="200" height="400" as="geometry" />
        </mxCell>
        <mxCell id="ovNdQlZxgXla1siBlJx2-299" value="" style="rounded=0;whiteSpace=wrap;html=1;fillColor=#f8cecc;strokeColor=#b85450;" vertex="1" parent="1">
          <mxGeometry x="931" y="-820" width="175" height="100" as="geometry" />
        </mxCell>
        <mxCell id="ovNdQlZxgXla1siBlJx2-300" value="XXXX家" style="text;html=1;align=center;verticalAlign=middle;whiteSpace=wrap;rounded=0;" vertex="1" parent="1">
          <mxGeometry x="931" y="-750" width="90" height="30" as="geometry" />
        </mxCell>
        <mxCell id="ovNdQlZxgXla1siBlJx2-301" value="" style="html=1;verticalLabelPosition=bottom;labelBackgroundColor=#ffffff;verticalAlign=top;shadow=0;dashed=0;strokeWidth=2;shape=mxgraph.ios7.misc.left;strokeColor=#0080f0;" vertex="1" parent="1">
          <mxGeometry x="941.5" y="-812" width="6" height="12" as="geometry" />
        </mxCell>
        <mxCell id="ovNdQlZxgXla1siBlJx2-302" value="評価" style="text;html=1;align=left;verticalAlign=middle;whiteSpace=wrap;rounded=0;" vertex="1" parent="1">
          <mxGeometry x="933" y="-633" width="70" height="20" as="geometry" />
        </mxCell>
        <mxCell id="ovNdQlZxgXla1siBlJx2-303" value="&lt;font color=&quot;#3399ff&quot;&gt;地図&lt;/font&gt;" style="text;html=1;align=left;verticalAlign=middle;whiteSpace=wrap;rounded=0;" vertex="1" parent="1">
          <mxGeometry x="932" y="-656" width="70" height="23" as="geometry" />
        </mxCell>
        <mxCell id="ovNdQlZxgXla1siBlJx2-304" value="予定追加" style="rounded=1;whiteSpace=wrap;html=1;fontSize=10;fillColor=#a20025;fontColor=#ffffff;strokeColor=#6F0000;" vertex="1" parent="1">
          <mxGeometry x="956" y="-714" width="48" height="26" as="geometry" />
        </mxCell>
        <mxCell id="ovNdQlZxgXla1siBlJx2-305" value="🤍🤍🤍" style="text;html=1;align=left;verticalAlign=middle;whiteSpace=wrap;rounded=0;" vertex="1" parent="1">
          <mxGeometry x="1041" y="-633" width="50" height="22" as="geometry" />
        </mxCell>
        <mxCell id="ovNdQlZxgXla1siBlJx2-306" value="最寄り駅" style="text;html=1;align=left;verticalAlign=middle;whiteSpace=wrap;rounded=0;" vertex="1" parent="1">
          <mxGeometry x="932" y="-612" width="70" height="20" as="geometry" />
        </mxCell>
        <mxCell id="ovNdQlZxgXla1siBlJx2-307" value="JR渋谷駅" style="text;html=1;align=left;verticalAlign=middle;whiteSpace=wrap;rounded=0;" vertex="1" parent="1">
          <mxGeometry x="1039" y="-612" width="70" height="22" as="geometry" />
        </mxCell>
        <mxCell id="ovNdQlZxgXla1siBlJx2-309" value="系統" style="text;html=1;align=left;verticalAlign=middle;whiteSpace=wrap;rounded=0;" vertex="1" parent="1">
          <mxGeometry x="932" y="-592" width="70" height="20" as="geometry" />
        </mxCell>
        <mxCell id="ovNdQlZxgXla1siBlJx2-310" value="家系" style="text;html=1;align=left;verticalAlign=middle;whiteSpace=wrap;rounded=0;" vertex="1" parent="1">
          <mxGeometry x="1039" y="-592" width="70" height="22" as="geometry" />
        </mxCell>
        <mxCell id="ovNdQlZxgXla1siBlJx2-311" value="編集" style="rounded=1;whiteSpace=wrap;html=1;fontSize=10;fillColor=#a20025;fontColor=#ffffff;strokeColor=#6F0000;" vertex="1" parent="1">
          <mxGeometry x="1034" y="-714.5" width="48" height="26" as="geometry" />
        </mxCell>
        <mxCell id="ovNdQlZxgXla1siBlJx2-312" value="&lt;font color=&quot;#3399ff&quot;&gt;Webサイト&lt;/font&gt;" style="text;html=1;align=left;verticalAlign=middle;whiteSpace=wrap;rounded=0;" vertex="1" parent="1">
          <mxGeometry x="932" y="-676" width="70" height="20" as="geometry" />
        </mxCell>
        <mxCell id="ovNdQlZxgXla1siBlJx2-313" value="" style="html=1;verticalLabelPosition=bottom;labelBackgroundColor=#ffffff;verticalAlign=top;shadow=0;dashed=0;strokeWidth=2;shape=mxgraph.ios7.misc.left;strokeColor=#FFFFFF;fontSize=9;" vertex="1" parent="1">
          <mxGeometry x="938" y="-770" width="4" height="6" as="geometry" />
        </mxCell>
        <mxCell id="ovNdQlZxgXla1siBlJx2-314" value="" style="html=1;verticalLabelPosition=bottom;labelBackgroundColor=#ffffff;verticalAlign=top;shadow=0;dashed=0;strokeWidth=2;shape=mxgraph.ios7.misc.left;strokeColor=#FFFFFF;fontSize=9;rotation=-180;" vertex="1" parent="1">
          <mxGeometry x="1095" y="-769" width="4" height="6" as="geometry" />
        </mxCell>
        <mxCell id="ovNdQlZxgXla1siBlJx2-315" value="" style="html=1;verticalLabelPosition=bottom;labelBackgroundColor=#ffffff;verticalAlign=top;shadow=0;dashed=0;strokeWidth=1;shape=mxgraph.ios7.misc.iphone;strokeColor=#c0c0c0;" vertex="1" parent="1">
          <mxGeometry x="680.5" y="1480" width="200" height="400" as="geometry" />
        </mxCell>
        <mxCell id="ovNdQlZxgXla1siBlJx2-316" value="XXXX家" style="text;html=1;align=left;verticalAlign=middle;whiteSpace=wrap;rounded=0;" vertex="1" parent="1">
          <mxGeometry x="740.5" y="1578" width="70" height="30" as="geometry" />
        </mxCell>
        <mxCell id="ovNdQlZxgXla1siBlJx2-317" value="画像" style="text;html=1;align=left;verticalAlign=middle;whiteSpace=wrap;rounded=0;fillColor=#e1d5e7;strokeColor=#9673a6;" vertex="1" parent="1">
          <mxGeometry x="700.5" y="1578" width="30" height="30" as="geometry" />
        </mxCell>
        <mxCell id="ovNdQlZxgXla1siBlJx2-318" value="9月3日" style="text;html=1;align=center;verticalAlign=middle;whiteSpace=wrap;rounded=0;" vertex="1" parent="1">
          <mxGeometry x="708" y="1540" width="150" height="30" as="geometry" />
        </mxCell>
        <mxCell id="ovNdQlZxgXla1siBlJx2-319" value="" style="html=1;verticalLabelPosition=bottom;labelBackgroundColor=#ffffff;verticalAlign=top;shadow=0;dashed=0;strokeWidth=2;shape=mxgraph.ios7.misc.left;strokeColor=#0080f0;" vertex="1" parent="1">
          <mxGeometry x="703" y="1548" width="6" height="12" as="geometry" />
        </mxCell>
        <mxCell id="ovNdQlZxgXla1siBlJx2-320" value="❤️❤️❤️" style="text;html=1;align=left;verticalAlign=middle;whiteSpace=wrap;rounded=0;" vertex="1" parent="1">
          <mxGeometry x="810.5" y="1578" width="50" height="30" as="geometry" />
        </mxCell>
        <mxCell id="ovNdQlZxgXla1siBlJx2-321" value="XXXX家" style="text;html=1;align=left;verticalAlign=middle;whiteSpace=wrap;rounded=0;" vertex="1" parent="1">
          <mxGeometry x="740.5" y="1616" width="70" height="30" as="geometry" />
        </mxCell>
        <mxCell id="ovNdQlZxgXla1siBlJx2-322" value="画像" style="text;html=1;align=left;verticalAlign=middle;whiteSpace=wrap;rounded=0;fillColor=#e1d5e7;strokeColor=#9673a6;" vertex="1" parent="1">
          <mxGeometry x="700.5" y="1616" width="30" height="30" as="geometry" />
        </mxCell>
        <mxCell id="ovNdQlZxgXla1siBlJx2-323" value="❤️❤️❤️" style="text;html=1;align=left;verticalAlign=middle;whiteSpace=wrap;rounded=0;" vertex="1" parent="1">
          <mxGeometry x="810.5" y="1616" width="50" height="30" as="geometry" />
        </mxCell>
        <mxCell id="ovNdQlZxgXla1siBlJx2-324" value="XXXX家" style="text;html=1;align=left;verticalAlign=middle;whiteSpace=wrap;rounded=0;" vertex="1" parent="1">
          <mxGeometry x="740.5" y="1655" width="70" height="30" as="geometry" />
        </mxCell>
        <mxCell id="ovNdQlZxgXla1siBlJx2-325" value="画像" style="text;html=1;align=left;verticalAlign=middle;whiteSpace=wrap;rounded=0;fillColor=#e1d5e7;strokeColor=#9673a6;" vertex="1" parent="1">
          <mxGeometry x="700.5" y="1655" width="30" height="30" as="geometry" />
        </mxCell>
        <mxCell id="ovNdQlZxgXla1siBlJx2-326" value="❤️❤️" style="text;html=1;align=left;verticalAlign=middle;whiteSpace=wrap;rounded=0;" vertex="1" parent="1">
          <mxGeometry x="810.5" y="1655" width="50" height="30" as="geometry" />
        </mxCell>
        <mxCell id="ovNdQlZxgXla1siBlJx2-327" value="&lt;p style=&quot;line-height: 100%;&quot;&gt;&lt;font style=&quot;font-size: 30px;&quot;&gt;+&lt;/font&gt;&lt;/p&gt;" style="ellipse;whiteSpace=wrap;html=1;aspect=fixed;fillColor=#a20025;fontColor=#ffffff;strokeColor=#6F0000;" vertex="1" parent="1">
          <mxGeometry x="827.5" y="1780" width="30" height="30" as="geometry" />
        </mxCell>
        <mxCell id="ovNdQlZxgXla1siBlJx2-328" value="" style="html=1;verticalLabelPosition=bottom;labelBackgroundColor=#ffffff;verticalAlign=top;shadow=0;dashed=0;strokeWidth=1;shape=mxgraph.ios7.misc.iphone;strokeColor=#c0c0c0;" vertex="1" parent="1">
          <mxGeometry x="680" y="-440" width="200" height="400" as="geometry" />
        </mxCell>
        <mxCell id="ovNdQlZxgXla1siBlJx2-329" value="" style="html=1;verticalLabelPosition=bottom;labelBackgroundColor=#ffffff;verticalAlign=top;shadow=0;dashed=0;strokeWidth=2;shape=mxgraph.ios7.misc.left;strokeColor=#0080f0;" vertex="1" parent="1">
          <mxGeometry x="702.5" y="-372" width="6" height="12" as="geometry" />
        </mxCell>
        <mxCell id="ovNdQlZxgXla1siBlJx2-335" value="登録" style="text;html=1;align=center;verticalAlign=middle;whiteSpace=wrap;rounded=0;" vertex="1" parent="1">
          <mxGeometry x="706.5" y="-380" width="150" height="30" as="geometry" />
        </mxCell>
        <mxCell id="ovNdQlZxgXla1siBlJx2-336" value="エリア" style="text;html=1;align=left;verticalAlign=middle;whiteSpace=wrap;rounded=0;fontSize=15;" vertex="1" parent="1">
          <mxGeometry x="693" y="-343" width="70" height="23" as="geometry" />
        </mxCell>
        <mxCell id="ovNdQlZxgXla1siBlJx2-337" value="" style="rounded=0;whiteSpace=wrap;html=1;" vertex="1" parent="1">
          <mxGeometry x="762" y="-343" width="101" height="23" as="geometry" />
        </mxCell>
        <mxCell id="ovNdQlZxgXla1siBlJx2-343" value="登録する" style="rounded=1;whiteSpace=wrap;html=1;fillColor=#a20025;fontColor=#ffffff;strokeColor=#6F0000;" vertex="1" parent="1">
          <mxGeometry x="704" y="-135" width="157" height="25" as="geometry" />
        </mxCell>
        <mxCell id="ovNdQlZxgXla1siBlJx2-344" value="" style="html=1;verticalLabelPosition=bottom;labelBackgroundColor=#ffffff;verticalAlign=top;shadow=0;dashed=0;strokeWidth=1;shape=mxgraph.ios7.misc.iphone;strokeColor=#c0c0c0;" vertex="1" parent="1">
          <mxGeometry x="679" y="960" width="200" height="400" as="geometry" />
        </mxCell>
        <mxCell id="ovNdQlZxgXla1siBlJx2-345" value="" style="html=1;verticalLabelPosition=bottom;labelBackgroundColor=#ffffff;verticalAlign=top;shadow=0;dashed=0;strokeWidth=2;shape=mxgraph.ios7.misc.left;strokeColor=#0080f0;" vertex="1" parent="1">
          <mxGeometry x="701.5" y="1028" width="6" height="12" as="geometry" />
        </mxCell>
        <mxCell id="ovNdQlZxgXla1siBlJx2-346" value="登録" style="text;html=1;align=center;verticalAlign=middle;whiteSpace=wrap;rounded=0;" vertex="1" parent="1">
          <mxGeometry x="705.5" y="1020" width="150" height="30" as="geometry" />
        </mxCell>
        <mxCell id="ovNdQlZxgXla1siBlJx2-347" value="エリア" style="text;html=1;align=left;verticalAlign=middle;whiteSpace=wrap;rounded=0;fontSize=15;" vertex="1" parent="1">
          <mxGeometry x="692" y="1057" width="70" height="23" as="geometry" />
        </mxCell>
        <mxCell id="ovNdQlZxgXla1siBlJx2-348" value="" style="rounded=0;whiteSpace=wrap;html=1;" vertex="1" parent="1">
          <mxGeometry x="761" y="1057" width="101" height="23" as="geometry" />
        </mxCell>
        <mxCell id="ovNdQlZxgXla1siBlJx2-349" value="登録する" style="rounded=1;whiteSpace=wrap;html=1;fillColor=#a20025;fontColor=#ffffff;strokeColor=#6F0000;" vertex="1" parent="1">
          <mxGeometry x="703" y="1265" width="157" height="25" as="geometry" />
        </mxCell>
        <mxCell id="ovNdQlZxgXla1siBlJx2-350" style="edgeStyle=orthogonalEdgeStyle;rounded=0;orthogonalLoop=1;jettySize=auto;html=1;entryX=0.002;entryY=0.267;entryDx=0;entryDy=0;entryPerimeter=0;exitX=0.491;exitY=0.999;exitDx=0;exitDy=0;exitPerimeter=0;" edge="1" parent="1" source="ovNdQlZxgXla1siBlJx2-240" target="ovNdQlZxgXla1siBlJx2-328">
          <mxGeometry relative="1" as="geometry" />
        </mxCell>
        <mxCell id="ovNdQlZxgXla1siBlJx2-351" style="edgeStyle=orthogonalEdgeStyle;rounded=0;orthogonalLoop=1;jettySize=auto;html=1;entryX=-0.004;entryY=0.5;entryDx=0;entryDy=0;entryPerimeter=0;" edge="1" parent="1" source="ovNdQlZxgXla1siBlJx2-240" target="ovNdQlZxgXla1siBlJx2-256">
          <mxGeometry relative="1" as="geometry" />
        </mxCell>
        <mxCell id="ovNdQlZxgXla1siBlJx2-352" style="edgeStyle=orthogonalEdgeStyle;rounded=0;orthogonalLoop=1;jettySize=auto;html=1;entryX=-0.004;entryY=0.5;entryDx=0;entryDy=0;entryPerimeter=0;" edge="1" parent="1">
          <mxGeometry relative="1" as="geometry">
            <mxPoint x="881" y="-1120.69" as="sourcePoint" />
            <mxPoint x="919" y="-1120.69" as="targetPoint" />
          </mxGeometry>
        </mxCell>
        <mxCell id="ovNdQlZxgXla1siBlJx2-353" style="edgeStyle=orthogonalEdgeStyle;rounded=0;orthogonalLoop=1;jettySize=auto;html=1;entryX=-0.004;entryY=0.573;entryDx=0;entryDy=0;entryPerimeter=0;exitX=0.477;exitY=1;exitDx=0;exitDy=0;exitPerimeter=0;" edge="1" parent="1" source="ovNdQlZxgXla1siBlJx2-256" target="ovNdQlZxgXla1siBlJx2-298">
          <mxGeometry relative="1" as="geometry" />
        </mxCell>
        <mxCell id="ovNdQlZxgXla1siBlJx2-354" style="edgeStyle=orthogonalEdgeStyle;rounded=0;orthogonalLoop=1;jettySize=auto;html=1;entryX=0.5;entryY=1.005;entryDx=0;entryDy=0;entryPerimeter=0;" edge="1" parent="1" source="ovNdQlZxgXla1siBlJx2-298" target="ovNdQlZxgXla1siBlJx2-270">
          <mxGeometry relative="1" as="geometry" />
        </mxCell>
        <mxCell id="ovNdQlZxgXla1siBlJx2-355" style="edgeStyle=orthogonalEdgeStyle;rounded=0;orthogonalLoop=1;jettySize=auto;html=1;entryX=1;entryY=0.498;entryDx=0;entryDy=0;entryPerimeter=0;exitX=0.473;exitY=0.998;exitDx=0;exitDy=0;exitPerimeter=0;" edge="1" parent="1" source="ovNdQlZxgXla1siBlJx2-288" target="ovNdQlZxgXla1siBlJx2-298">
          <mxGeometry relative="1" as="geometry" />
        </mxCell>
        <mxCell id="ovNdQlZxgXla1siBlJx2-356" style="edgeStyle=orthogonalEdgeStyle;rounded=0;orthogonalLoop=1;jettySize=auto;html=1;entryX=-0.018;entryY=0.5;entryDx=0;entryDy=0;entryPerimeter=0;" edge="1" parent="1" source="ovNdQlZxgXla1siBlJx2-270" target="ovNdQlZxgXla1siBlJx2-288">
          <mxGeometry relative="1" as="geometry" />
        </mxCell>
        <mxCell id="ovNdQlZxgXla1siBlJx2-359" value="" style="html=1;verticalLabelPosition=bottom;labelBackgroundColor=#ffffff;verticalAlign=top;shadow=0;dashed=0;strokeWidth=1;shape=mxgraph.ios7.misc.iphone;strokeColor=#c0c0c0;" vertex="1" parent="1">
          <mxGeometry x="674" y="2360" width="200" height="400" as="geometry" />
        </mxCell>
        <mxCell id="ovNdQlZxgXla1siBlJx2-360" value="" style="html=1;verticalLabelPosition=bottom;labelBackgroundColor=#ffffff;verticalAlign=top;shadow=0;dashed=0;strokeWidth=2;shape=mxgraph.ios7.misc.left;strokeColor=#0080f0;" vertex="1" parent="1">
          <mxGeometry x="696.5" y="2428" width="6" height="12" as="geometry" />
        </mxCell>
        <mxCell id="ovNdQlZxgXla1siBlJx2-361" value="登録" style="text;html=1;align=center;verticalAlign=middle;whiteSpace=wrap;rounded=0;" vertex="1" parent="1">
          <mxGeometry x="700.5" y="2420" width="150" height="30" as="geometry" />
        </mxCell>
        <mxCell id="ovNdQlZxgXla1siBlJx2-362" value="エリア" style="text;html=1;align=left;verticalAlign=middle;whiteSpace=wrap;rounded=0;fontSize=15;" vertex="1" parent="1">
          <mxGeometry x="687" y="2457" width="70" height="23" as="geometry" />
        </mxCell>
        <mxCell id="ovNdQlZxgXla1siBlJx2-363" value="" style="rounded=0;whiteSpace=wrap;html=1;" vertex="1" parent="1">
          <mxGeometry x="756" y="2457" width="101" height="23" as="geometry" />
        </mxCell>
        <mxCell id="ovNdQlZxgXla1siBlJx2-364" value="登録する" style="rounded=1;whiteSpace=wrap;html=1;fillColor=#a20025;fontColor=#ffffff;strokeColor=#6F0000;" vertex="1" parent="1">
          <mxGeometry x="698" y="2665" width="157" height="25" as="geometry" />
        </mxCell>
        <mxCell id="ovNdQlZxgXla1siBlJx2-365" value="" style="html=1;verticalLabelPosition=bottom;labelBackgroundColor=#ffffff;verticalAlign=top;shadow=0;dashed=0;strokeWidth=1;shape=mxgraph.ios7.misc.iphone;strokeColor=#c0c0c0;" vertex="1" parent="1">
          <mxGeometry x="919.5" y="1480" width="200" height="400" as="geometry" />
        </mxCell>
        <mxCell id="ovNdQlZxgXla1siBlJx2-366" value="" style="html=1;verticalLabelPosition=bottom;labelBackgroundColor=#ffffff;verticalAlign=top;shadow=0;dashed=0;strokeWidth=2;shape=mxgraph.ios7.misc.left;strokeColor=#0080f0;" vertex="1" parent="1">
          <mxGeometry x="942" y="1548" width="6" height="12" as="geometry" />
        </mxCell>
        <mxCell id="ovNdQlZxgXla1siBlJx2-367" value="行きたい" style="text;html=1;align=left;verticalAlign=middle;whiteSpace=wrap;rounded=0;fontSize=13;" vertex="1" parent="1">
          <mxGeometry x="933.5" y="1663" width="66.5" height="20" as="geometry" />
        </mxCell>
        <mxCell id="ovNdQlZxgXla1siBlJx2-368" value="&lt;font color=&quot;#007fff&quot;&gt;地図&lt;/font&gt;" style="text;html=1;align=left;verticalAlign=middle;whiteSpace=wrap;rounded=0;fontSize=13;" vertex="1" parent="1">
          <mxGeometry x="934.5" y="1634" width="70" height="23" as="geometry" />
        </mxCell>
        <mxCell id="ovNdQlZxgXla1siBlJx2-370" value="&lt;font style=&quot;font-size: 13px;&quot; color=&quot;#007fff&quot;&gt;乗換案内&lt;/font&gt;" style="text;html=1;align=left;verticalAlign=middle;whiteSpace=wrap;rounded=0;fontSize=13;" vertex="1" parent="1">
          <mxGeometry x="933.5" y="1715" width="70" height="20" as="geometry" />
        </mxCell>
        <mxCell id="ovNdQlZxgXla1siBlJx2-371" value="系統" style="text;html=1;align=left;verticalAlign=middle;whiteSpace=wrap;rounded=0;fontSize=13;" vertex="1" parent="1">
          <mxGeometry x="933.5" y="1742" width="70" height="20" as="geometry" />
        </mxCell>
        <mxCell id="ovNdQlZxgXla1siBlJx2-372" value="" style="html=1;verticalLabelPosition=bottom;labelBackgroundColor=#ffffff;verticalAlign=top;shadow=0;dashed=0;strokeWidth=1;shape=mxgraph.ios7.misc.iphone;strokeColor=#c0c0c0;" vertex="1" parent="1">
          <mxGeometry x="919.5" y="1920" width="200" height="400" as="geometry" />
        </mxCell>
        <mxCell id="ovNdQlZxgXla1siBlJx2-373" value="" style="rounded=0;whiteSpace=wrap;html=1;fillColor=#f8cecc;strokeColor=#b85450;" vertex="1" parent="1">
          <mxGeometry x="931.5" y="1980" width="175" height="100" as="geometry" />
        </mxCell>
        <mxCell id="ovNdQlZxgXla1siBlJx2-374" value="XXXX家" style="text;html=1;align=center;verticalAlign=middle;whiteSpace=wrap;rounded=0;" vertex="1" parent="1">
          <mxGeometry x="931.5" y="2050" width="90" height="30" as="geometry" />
        </mxCell>
        <mxCell id="ovNdQlZxgXla1siBlJx2-375" value="" style="html=1;verticalLabelPosition=bottom;labelBackgroundColor=#ffffff;verticalAlign=top;shadow=0;dashed=0;strokeWidth=2;shape=mxgraph.ios7.misc.left;strokeColor=#0080f0;" vertex="1" parent="1">
          <mxGeometry x="942" y="1988" width="6" height="12" as="geometry" />
        </mxCell>
        <mxCell id="ovNdQlZxgXla1siBlJx2-376" value="行きたい" style="text;html=1;align=left;verticalAlign=middle;whiteSpace=wrap;rounded=0;" vertex="1" parent="1">
          <mxGeometry x="933" y="2163" width="70" height="20" as="geometry" />
        </mxCell>
        <mxCell id="ovNdQlZxgXla1siBlJx2-377" value="&lt;font color=&quot;#3399ff&quot;&gt;地図&lt;/font&gt;" style="text;html=1;align=left;verticalAlign=middle;whiteSpace=wrap;rounded=0;" vertex="1" parent="1">
          <mxGeometry x="933.5" y="2142" width="70" height="23" as="geometry" />
        </mxCell>
        <mxCell id="ovNdQlZxgXla1siBlJx2-379" value="🤍🤍🤍" style="text;html=1;align=left;verticalAlign=middle;whiteSpace=wrap;rounded=0;" vertex="1" parent="1">
          <mxGeometry x="1041" y="2163" width="50" height="22" as="geometry" />
        </mxCell>
        <mxCell id="ovNdQlZxgXla1siBlJx2-380" value="&lt;span style=&quot;font-size: 11px;&quot;&gt;乗換案内&lt;/span&gt;" style="text;html=1;align=left;verticalAlign=middle;whiteSpace=wrap;rounded=0;fontColor=#007FFF;" vertex="1" parent="1">
          <mxGeometry x="933.5" y="2201" width="70" height="20" as="geometry" />
        </mxCell>
        <mxCell id="ovNdQlZxgXla1siBlJx2-382" value="来店済" style="rounded=1;whiteSpace=wrap;html=1;fontSize=10;fillColor=#a20025;strokeColor=#6F0000;fontColor=#ffffff;" vertex="1" parent="1">
          <mxGeometry x="956.5" y="2085.5" width="48" height="26" as="geometry" />
        </mxCell>
        <mxCell id="ovNdQlZxgXla1siBlJx2-383" value="系統" style="text;html=1;align=left;verticalAlign=middle;whiteSpace=wrap;rounded=0;" vertex="1" parent="1">
          <mxGeometry x="933.5" y="2221" width="70" height="20" as="geometry" />
        </mxCell>
        <mxCell id="ovNdQlZxgXla1siBlJx2-384" value="家系" style="text;html=1;align=left;verticalAlign=middle;whiteSpace=wrap;rounded=0;" vertex="1" parent="1">
          <mxGeometry x="1039.5" y="2221" width="70" height="22" as="geometry" />
        </mxCell>
        <mxCell id="ovNdQlZxgXla1siBlJx2-385" value="編集" style="rounded=1;whiteSpace=wrap;html=1;fontSize=10;fillColor=#a20025;fontColor=#ffffff;strokeColor=#6F0000;" vertex="1" parent="1">
          <mxGeometry x="1039" y="2085.5" width="48" height="26" as="geometry" />
        </mxCell>
        <mxCell id="ovNdQlZxgXla1siBlJx2-386" value="&lt;font color=&quot;#3399ff&quot;&gt;Webサイト&lt;/font&gt;" style="text;html=1;align=left;verticalAlign=middle;whiteSpace=wrap;rounded=0;" vertex="1" parent="1">
          <mxGeometry x="932.5" y="2124" width="70" height="20" as="geometry" />
        </mxCell>
        <mxCell id="ovNdQlZxgXla1siBlJx2-387" value="登録" style="text;html=1;align=center;verticalAlign=middle;whiteSpace=wrap;rounded=0;" vertex="1" parent="1">
          <mxGeometry x="946" y="1540" width="150" height="30" as="geometry" />
        </mxCell>
        <mxCell id="ovNdQlZxgXla1siBlJx2-388" value="名前" style="text;html=1;align=left;verticalAlign=middle;whiteSpace=wrap;rounded=0;fontSize=13;" vertex="1" parent="1">
          <mxGeometry x="933.5" y="1577" width="70" height="23" as="geometry" />
        </mxCell>
        <mxCell id="ovNdQlZxgXla1siBlJx2-389" value="" style="rounded=0;whiteSpace=wrap;html=1;" vertex="1" parent="1">
          <mxGeometry x="1001.5" y="1577" width="101" height="23" as="geometry" />
        </mxCell>
        <mxCell id="ovNdQlZxgXla1siBlJx2-395" value="登録する" style="rounded=1;whiteSpace=wrap;html=1;fillColor=#a20025;fontColor=#ffffff;strokeColor=#6F0000;" vertex="1" parent="1">
          <mxGeometry x="943.5" y="1785" width="157" height="25" as="geometry" />
        </mxCell>
        <mxCell id="ovNdQlZxgXla1siBlJx2-396" value="" style="html=1;verticalLabelPosition=bottom;labelBackgroundColor=#ffffff;verticalAlign=top;shadow=0;dashed=0;strokeWidth=2;shape=mxgraph.ios7.misc.left;strokeColor=#FFFFFF;fontSize=9;" vertex="1" parent="1">
          <mxGeometry x="938.5" y="2030" width="4" height="6" as="geometry" />
        </mxCell>
        <mxCell id="ovNdQlZxgXla1siBlJx2-397" value="" style="html=1;verticalLabelPosition=bottom;labelBackgroundColor=#ffffff;verticalAlign=top;shadow=0;dashed=0;strokeWidth=2;shape=mxgraph.ios7.misc.left;strokeColor=#FFFFFF;fontSize=9;rotation=-180;" vertex="1" parent="1">
          <mxGeometry x="1095.5" y="2031" width="4" height="6" as="geometry" />
        </mxCell>
        <mxCell id="ovNdQlZxgXla1siBlJx2-400" value="&lt;font style=&quot;font-size: 13px;&quot; color=&quot;#007fff&quot;&gt;Webサイト&lt;/font&gt;" style="text;html=1;align=left;verticalAlign=middle;whiteSpace=wrap;rounded=0;fontSize=13;" vertex="1" parent="1">
          <mxGeometry x="933" y="207" width="70" height="20" as="geometry" />
        </mxCell>
        <mxCell id="ovNdQlZxgXla1siBlJx2-402" value="&lt;font style=&quot;font-size: 13px;&quot; color=&quot;#007fff&quot;&gt;Webサイト&lt;/font&gt;" style="text;html=1;align=left;verticalAlign=middle;whiteSpace=wrap;rounded=0;fontSize=13;" vertex="1" parent="1">
          <mxGeometry x="933" y="-1192" width="70" height="20" as="geometry" />
        </mxCell>
        <mxCell id="ovNdQlZxgXla1siBlJx2-405" value="" style="rounded=0;whiteSpace=wrap;html=1;" vertex="1" parent="1">
          <mxGeometry x="1000" y="-1195" width="101" height="23" as="geometry" />
        </mxCell>
        <mxCell id="ovNdQlZxgXla1siBlJx2-406" value="" style="rounded=0;whiteSpace=wrap;html=1;" vertex="1" parent="1">
          <mxGeometry x="1000" y="-1167" width="101" height="23" as="geometry" />
        </mxCell>
        <mxCell id="ovNdQlZxgXla1siBlJx2-407" value="Option 1" style="strokeWidth=1;html=1;shadow=0;dashed=0;shape=mxgraph.ios.iComboBox;spacingTop=2;spacingLeft=2;align=left;strokeColor=#444444;fontColor=#666666;buttonText=;fontSize=8;fillColor=#dddddd;fillColor2=#3D5565;sketch=0;whiteSpace=wrap;" vertex="1" parent="1">
          <mxGeometry x="1000" y="-1135.5" width="57.99999999999999" height="15" as="geometry" />
        </mxCell>
        <mxCell id="ovNdQlZxgXla1siBlJx2-408" value="Option 1" style="strokeWidth=1;html=1;shadow=0;dashed=0;shape=mxgraph.ios.iComboBox;spacingTop=2;spacingLeft=2;align=left;strokeColor=#444444;fontColor=#666666;buttonText=;fontSize=8;fillColor=#dddddd;fillColor2=#3D5565;sketch=0;whiteSpace=wrap;" vertex="1" parent="1">
          <mxGeometry x="1000" y="-1078.5" width="57.99999999999999" height="15" as="geometry" />
        </mxCell>
        <mxCell id="ovNdQlZxgXla1siBlJx2-409" value="" style="rounded=0;whiteSpace=wrap;html=1;" vertex="1" parent="1">
          <mxGeometry x="1001" y="204" width="101" height="23" as="geometry" />
        </mxCell>
        <mxCell id="ovNdQlZxgXla1siBlJx2-410" value="Option 1" style="strokeWidth=1;html=1;shadow=0;dashed=0;shape=mxgraph.ios.iComboBox;spacingTop=2;spacingLeft=2;align=left;strokeColor=#444444;fontColor=#666666;buttonText=;fontSize=8;fillColor=#dddddd;fillColor2=#3D5565;sketch=0;whiteSpace=wrap;" vertex="1" parent="1">
          <mxGeometry x="1000" y="258" width="57.99999999999999" height="15" as="geometry" />
        </mxCell>
        <mxCell id="ovNdQlZxgXla1siBlJx2-411" value="Option 1" style="strokeWidth=1;html=1;shadow=0;dashed=0;shape=mxgraph.ios.iComboBox;spacingTop=2;spacingLeft=2;align=left;strokeColor=#444444;fontColor=#666666;buttonText=;fontSize=8;fillColor=#dddddd;fillColor2=#3D5565;sketch=0;whiteSpace=wrap;" vertex="1" parent="1">
          <mxGeometry x="1000" y="312" width="57.99999999999999" height="15" as="geometry" />
        </mxCell>
        <mxCell id="ovNdQlZxgXla1siBlJx2-412" value="&lt;font style=&quot;font-size: 13px;&quot; color=&quot;#007fff&quot;&gt;Webサイト&lt;/font&gt;" style="text;html=1;align=left;verticalAlign=middle;whiteSpace=wrap;rounded=0;fontSize=13;" vertex="1" parent="1">
          <mxGeometry x="933.5" y="1608" width="70" height="20" as="geometry" />
        </mxCell>
        <mxCell id="ovNdQlZxgXla1siBlJx2-413" value="" style="rounded=0;whiteSpace=wrap;html=1;" vertex="1" parent="1">
          <mxGeometry x="1001.5" y="1605" width="101" height="23" as="geometry" />
        </mxCell>
        <mxCell id="ovNdQlZxgXla1siBlJx2-414" value="" style="rounded=0;whiteSpace=wrap;html=1;" vertex="1" parent="1">
          <mxGeometry x="1000.5" y="1713" width="101" height="23" as="geometry" />
        </mxCell>
        <mxCell id="ovNdQlZxgXla1siBlJx2-415" value="" style="rounded=0;whiteSpace=wrap;html=1;" vertex="1" parent="1">
          <mxGeometry x="1001" y="231" width="101" height="23" as="geometry" />
        </mxCell>
        <mxCell id="ovNdQlZxgXla1siBlJx2-416" value="Option 1" style="strokeWidth=1;html=1;shadow=0;dashed=0;shape=mxgraph.ios.iComboBox;spacingTop=2;spacingLeft=2;align=left;strokeColor=#444444;fontColor=#666666;buttonText=;fontSize=8;fillColor=#dddddd;fillColor2=#3D5565;sketch=0;whiteSpace=wrap;" vertex="1" parent="1">
          <mxGeometry x="1002" y="1664" width="57.99999999999999" height="15" as="geometry" />
        </mxCell>
        <mxCell id="ovNdQlZxgXla1siBlJx2-417" value="Option 1" style="strokeWidth=1;html=1;shadow=0;dashed=0;shape=mxgraph.ios.iComboBox;spacingTop=2;spacingLeft=2;align=left;strokeColor=#444444;fontColor=#666666;buttonText=;fontSize=8;fillColor=#dddddd;fillColor2=#3D5565;sketch=0;whiteSpace=wrap;" vertex="1" parent="1">
          <mxGeometry x="1001" y="1743" width="57.99999999999999" height="15" as="geometry" />
        </mxCell>
        <mxCell id="ovNdQlZxgXla1siBlJx2-418" value="" style="rounded=0;whiteSpace=wrap;html=1;" vertex="1" parent="1">
          <mxGeometry x="1001.5" y="1633" width="101" height="23" as="geometry" />
        </mxCell>
        <mxCell id="ovNdQlZxgXla1siBlJx2-419" value="最寄り駅" style="text;html=1;align=left;verticalAlign=middle;whiteSpace=wrap;rounded=0;fontSize=13;" vertex="1" parent="1">
          <mxGeometry x="933.5" y="1687" width="70" height="23" as="geometry" />
        </mxCell>
        <mxCell id="ovNdQlZxgXla1siBlJx2-420" value="" style="rounded=0;whiteSpace=wrap;html=1;" vertex="1" parent="1">
          <mxGeometry x="1000.5" y="1685" width="101" height="23" as="geometry" />
        </mxCell>
        <mxCell id="ovNdQlZxgXla1siBlJx2-421" value="最寄り駅" style="text;html=1;align=left;verticalAlign=middle;whiteSpace=wrap;rounded=0;" vertex="1" parent="1">
          <mxGeometry x="933.5" y="2182" width="70" height="20" as="geometry" />
        </mxCell>
        <mxCell id="ovNdQlZxgXla1siBlJx2-422" value="JR渋谷" style="text;html=1;align=left;verticalAlign=middle;whiteSpace=wrap;rounded=0;" vertex="1" parent="1">
          <mxGeometry x="1040.5" y="2182" width="70" height="22" as="geometry" />
        </mxCell>
        <mxCell id="ovNdQlZxgXla1siBlJx2-423" style="edgeStyle=orthogonalEdgeStyle;rounded=0;orthogonalLoop=1;jettySize=auto;html=1;entryX=-0.01;entryY=0.499;entryDx=0;entryDy=0;entryPerimeter=0;" edge="1" parent="1" source="ovNdQlZxgXla1siBlJx2-7" target="ovNdQlZxgXla1siBlJx2-70">
          <mxGeometry relative="1" as="geometry" />
        </mxCell>
        <mxCell id="ovNdQlZxgXla1siBlJx2-424" style="edgeStyle=orthogonalEdgeStyle;rounded=0;orthogonalLoop=1;jettySize=auto;html=1;entryX=0.004;entryY=0.499;entryDx=0;entryDy=0;entryPerimeter=0;" edge="1" parent="1" source="ovNdQlZxgXla1siBlJx2-70" target="ovNdQlZxgXla1siBlJx2-106">
          <mxGeometry relative="1" as="geometry" />
        </mxCell>
        <mxCell id="ovNdQlZxgXla1siBlJx2-425" style="edgeStyle=orthogonalEdgeStyle;rounded=0;orthogonalLoop=1;jettySize=auto;html=1;entryX=0.499;entryY=-0.002;entryDx=0;entryDy=0;entryPerimeter=0;" edge="1" parent="1" source="ovNdQlZxgXla1siBlJx2-106" target="ovNdQlZxgXla1siBlJx2-145">
          <mxGeometry relative="1" as="geometry" />
        </mxCell>
        <mxCell id="ovNdQlZxgXla1siBlJx2-426" style="edgeStyle=orthogonalEdgeStyle;rounded=0;orthogonalLoop=1;jettySize=auto;html=1;entryX=-0.001;entryY=0.515;entryDx=0;entryDy=0;entryPerimeter=0;exitX=0.499;exitY=1.001;exitDx=0;exitDy=0;exitPerimeter=0;" edge="1" parent="1" source="ovNdQlZxgXla1siBlJx2-70" target="ovNdQlZxgXla1siBlJx2-145">
          <mxGeometry relative="1" as="geometry" />
        </mxCell>
        <mxCell id="ovNdQlZxgXla1siBlJx2-427" style="edgeStyle=orthogonalEdgeStyle;rounded=0;orthogonalLoop=1;jettySize=auto;html=1;entryX=0;entryY=0.523;entryDx=0;entryDy=0;entryPerimeter=0;exitX=0.513;exitY=0.999;exitDx=0;exitDy=0;exitPerimeter=0;" edge="1" parent="1" source="ovNdQlZxgXla1siBlJx2-7" target="ovNdQlZxgXla1siBlJx2-344">
          <mxGeometry relative="1" as="geometry" />
        </mxCell>
        <mxCell id="ovNdQlZxgXla1siBlJx2-429" style="edgeStyle=orthogonalEdgeStyle;rounded=0;orthogonalLoop=1;jettySize=auto;html=1;entryX=-0.014;entryY=0.5;entryDx=0;entryDy=0;entryPerimeter=0;" edge="1" parent="1" source="ovNdQlZxgXla1siBlJx2-29" target="ovNdQlZxgXla1siBlJx2-315">
          <mxGeometry relative="1" as="geometry" />
        </mxCell>
        <mxCell id="ovNdQlZxgXla1siBlJx2-430" style="edgeStyle=orthogonalEdgeStyle;rounded=0;orthogonalLoop=1;jettySize=auto;html=1;entryX=0.005;entryY=0.5;entryDx=0;entryDy=0;entryPerimeter=0;" edge="1" parent="1" source="ovNdQlZxgXla1siBlJx2-315" target="ovNdQlZxgXla1siBlJx2-365">
          <mxGeometry relative="1" as="geometry" />
        </mxCell>
        <mxCell id="ovNdQlZxgXla1siBlJx2-431" style="edgeStyle=orthogonalEdgeStyle;rounded=0;orthogonalLoop=1;jettySize=auto;html=1;entryX=-0.002;entryY=0.583;entryDx=0;entryDy=0;entryPerimeter=0;exitX=0.502;exitY=0.998;exitDx=0;exitDy=0;exitPerimeter=0;" edge="1" parent="1" source="ovNdQlZxgXla1siBlJx2-29" target="ovNdQlZxgXla1siBlJx2-359">
          <mxGeometry relative="1" as="geometry" />
        </mxCell>
        <mxCell id="ovNdQlZxgXla1siBlJx2-432" style="edgeStyle=orthogonalEdgeStyle;rounded=0;orthogonalLoop=1;jettySize=auto;html=1;entryX=0.003;entryY=0.545;entryDx=0;entryDy=0;entryPerimeter=0;exitX=0.503;exitY=1;exitDx=0;exitDy=0;exitPerimeter=0;" edge="1" parent="1" source="ovNdQlZxgXla1siBlJx2-315" target="ovNdQlZxgXla1siBlJx2-372">
          <mxGeometry relative="1" as="geometry" />
        </mxCell>
        <mxCell id="ovNdQlZxgXla1siBlJx2-434" value="" style="shape=image;verticalLabelPosition=bottom;labelBackgroundColor=default;verticalAlign=top;aspect=fixed;imageAspect=0;image=data:image/png,iVBORw0KGgoAAAANSUhEUgAAAGAAAABmCAYAAAA0wZQlAAAMT2lDQ1BJQ0MgUHJvZmlsZQAASImVVwdYU8kWnltSIQQIhCIl9CaISAkgJYQWQHoRRCUkAUKJMSGo2NHFFVy7iGBZ0VUQxQ6I2FBXXVkUC+haFgsqK+viutiVNyGALvvK9+b75s5//znzzznnztx7BwB6F18qzUU1AciT5MtiQwJYk5NTWKQeQAZ6AAOWwIkvkEs50dERAJbh9u/ldQdAlO11R6XWP/v/a9ESiuQCAJBoiNOFckEexEcAwJsFUlk+AEQp5C1m5UuVeD3EOjLoIMTVSpypws1KnK7CVwdt4mO5ED8GgKzO58syAdDogzyrQJAJdegwWuAsEYolEPtD7JuXN0MI8SKIbaENnJOu1Genf6WT+TfN9BFNPj9zBKtiGSzkQLFcmsuf83+m43+XvFzF8Bw2sKpnyUJjlTHDvD3OmRGuxOoQv5WkR0ZBrA0AiouFg/ZKzMxShCao7FFbgZwLcwaYEE+U58bxhvhYIT8wHGIjiDMkuZERQzZFGeJgpQ3MH1ouzufFQ6wPcbVIHhQ3ZHNaNiN2eN6ODBmXM8Q/48sGfVDqf1bkJHBU+ph2log3pI85FWbFJ0FMhTiwQJwYCbEGxJHynLjwIZvUwixu5LCNTBGrjMUSYplIEhKg0sfKMmTBsUP2e/Lkw7Fjp7PEvMghfC0/Kz5UlSvssYA/6D+MBesTSTgJwzoi+eSI4ViEosAgVew4WSRJiFPxuL40PyBWNRa3l+ZGD9njAaLcECVvDnG8vCBueGxBPlycKn28WJofHa/yE6/I5odFq/zBD4AIwAWBgAUUsKaDGSAbiNt6G3rhnaonGPCBDGQCEXAcYoZHJA32SOA1DhSC3yESAfnIuIDBXhEogPynUaySE49wqqsjyBjqU6rkgCcQ54FwkAvvFYNKkhEPEsFjyIj/4REfVgGMIRdWZf+/54fZLwwHMhFDjGJ4RhZ92JIYRAwkhhKDiXa4Ie6Le+MR8OoPqwvOxj2H4/hiT3hCaCc8JNwkdBFuTxcXyUZ5OQl0Qf3gofykf50f3BpquuEBuA9Uh8o4EzcEjrgrnIeD+8GZ3SDLHfJbmRXWKO2/RfDVExqyozhTUIoexZ9iO3qkhr2G24iKMtdf50fla/pIvrkjPaPn536VfSFsw0dbYt9ih7EL2BnsEtaMNQAWdgprxFqxE0o8suIeD6644dliB/3JgTqj18yXJ6vMpNy51rnH+aOqL180O1+5GbkzpHNk4sysfBYHfjFELJ5E4DSW5eLs4gaA8vujer29ihn8riDM1i/ckl8B8Dk1MDBw/AsXdgqAgx7wlXDsC2fLhp8WNQAuHhMoZAUqDldeCPDNQYe7zwCYAAtgC+NxAe7AG/iDIBAGokA8SAbToPdZcJ3LwCwwDywGxaAUrAYbQAXYBnaAarAPHAINoBmcAT+Cy+AquAnuwNXTDZ6DPvAafEAQhITQEAZigJgiVogD4oKwEV8kCIlAYpFkJA3JRCSIApmHLEFKkbVIBbIdqUEOIseQM8glpB25jTxAepA/kfcohqqjOqgxao2OQ9koBw1H49GpaCY6Ey1El6Ir0XK0Ct2L1qNn0MvoTbQLfY72YwBTw5iYGeaIsTEuFoWlYBmYDFuAlWBlWBVWhzXB53wd68J6sXc4EWfgLNwRruBQPAEX4DPxBfgKvAKvxuvxc/h1/AHeh38m0AhGBAeCF4FHmEzIJMwiFBPKCLsIRwnn4V7qJrwmEolMog3RA+7FZGI2cS5xBXELcT/xNLGd+IjYTyKRDEgOJB9SFIlPyicVkzaR9pJOka6RuklvyWpkU7ILOZicQpaQi8hl5D3kk+Rr5KfkDxRNihXFixJFEVLmUFZRdlKaKFco3ZQPVC2qDdWHGk/Npi6mllPrqOepd6mv1NTUzNU81WLUxGqL1MrVDqhdVHug9k5dW91enaueqq5QX6m+W/20+m31VzQazZrmT0uh5dNW0mpoZ2n3aW81GBpOGjwNocZCjUqNeo1rGi/oFLoVnUOfRi+kl9EP06/QezUpmtaaXE2+5gLNSs1jmp2a/VoMrfFaUVp5Wiu09mhd0nqmTdK21g7SFmov1d6hfVb7EQNjWDC4DAFjCWMn4zyjW4eoY6PD08nWKdXZp9Om06erreuqm6g7W7dS94RuFxNjWjN5zFzmKuYhZgfzvZ6xHkdPpLdcr07vmt4b/TH6/voi/RL9/fo39d8bsAyCDHIM1hg0GNwzxA3tDWMMZxluNTxv2DtGZ4z3GMGYkjGHxvxihBrZG8UazTXaYdRq1G9sYhxiLDXeZHzWuNeEaeJvkm2y3uSkSY8pw9TXVGy63vSU6W8sXRaHlcsqZ51j9ZkZmYWaKcy2m7WZfTC3MU8wLzLfb37PgmrBtsiwWG/RYtFnaWo5yXKeZa3lL1YUK7ZVltVGqwtWb6xtrJOsl1k3WD+z0bfh2RTa1NrctaXZ+tnOtK2yvWFHtGPb5dhtsbtqj9q72WfZV9pfcUAd3B3EDlsc2scSxnqOlYytGtvpqO7IcSxwrHV84MR0inAqcmpwejHOclzKuDXjLoz77OzmnOu80/nOeO3xYeOLxjeN/9PF3kXgUulyYwJtQvCEhRMaJ7x0dXAVuW51veXGcJvktsytxe2Tu4e7zL3OvcfD0iPNY7NHJ1uHHc1ewb7oSfAM8Fzo2ez5zsvdK9/rkNcf3o7eOd57vJ9NtJkomrhz4iMfcx++z3afLl+Wb5rv975dfmZ+fL8qv4f+Fv5C/13+Tzl2nGzOXs6LAOcAWcDRgDdcL+587ulALDAksCSwLUg7KCGoIuh+sHlwZnBtcF+IW8jckNOhhNDw0DWhnTxjnoBXw+sL8wibH3YuXD08Lrwi/GGEfYQsomkSOils0rpJdyOtIiWRDVEgihe1LupetE30zOjjMcSY6JjKmCex42PnxV6IY8RNj9sT9zo+IH5V/J0E2wRFQksiPTE1sSbxTVJg0tqkrsnjJs+ffDnZMFmc3JhCSklM2ZXSPyVoyoYp3aluqcWpHVNtps6eemma4bTcaSem06fzpx9OI6Qlpe1J+8iP4lfx+9N56ZvT+wRcwUbBc6G/cL2wR+QjWit6muGTsTbjWaZP5rrMniy/rLKsXjFXXCF+mR2avS37TU5Uzu6cgdyk3P155Ly0vGMSbUmO5NwMkxmzZ7RLHaTF0q6ZXjM3zOyThct2yRH5VHljvg780W9V2Cq+UTwo8C2oLHg7K3HW4dlasyWzW+fYz1k+52lhcOEPc/G5grkt88zmLZ73YD5n/vYFyIL0BS0LLRYuXdi9KGRR9WLq4pzFPxc5F60t+mtJ0pKmpcZLFy199E3IN7XFGsWy4s5l3su2fYt/K/62bfmE5ZuWfy4RlvxU6lxaVvpxhWDFT9+N/678u4GVGSvbVrmv2rqauFqyumON35rqtVprC9c+WjdpXf161vqS9X9tmL7hUplr2baN1I2KjV3lEeWNmyw3rd70sSKr4mZlQOX+zUabl29+s0W45dpW/61124y3lW57/734+1vbQ7bXV1lXle0g7ijY8WRn4s4LP7B/qNlluKt016fdkt1d1bHV52o8amr2GO1ZVYvWKmp79qbuvbovcF9jnWPd9v3M/aUHwAHFgd8Oph3sOBR+qOUw+3DdEasjm48yjpbUI/Vz6vsashq6GpMb24+FHWtp8m46etzp+O5ms+bKE7onVp2knlx6cuBU4an+09LTvWcyzzxqmd5y5+zkszfOxZxrOx9+/uKPwT+evcC5cOqiz8XmS16Xjv3E/qnhsvvl+la31qM/u/18tM29rf6Kx5XGq55Xm9ontp+85nftzPXA6z/e4N24fDPyZntHQsetztTOrlvCW89u595++UvBLx/uLLpLuFtyT/Ne2X2j+1W/2v26v8u968SDwAetD+Me3nkkePT8sfzxx+6lT2hPyp6aPq155vKsuSe45+pvU37rfi59/qG3+Het3ze/sH1x5A//P1r7Jvd1v5S9HPhzxSuDV7v/cv2rpT+6//7rvNcf3pS8NXhb/Y797sL7pPdPP8z6SPpY/snuU9Pn8M93B/IGBqR8GX/wVwADyqNNBgB/7gaAlgwAA54bqVNU58PBgqjOtIMI/CesOkMOFncA6uA/fUwv/LvpBODATgCsoT49FYBoGgDxngCdMGGkDp/lBs+dykKEZ4Pvoz6l56WDf1NUZ9Kv/B7dAqWqKxjd/gvN04Mn2FAI/wAAAIplWElmTU0AKgAAAAgABAEaAAUAAAABAAAAPgEbAAUAAAABAAAARgEoAAMAAAABAAIAAIdpAAQAAAABAAAATgAAAAAAAACQAAAAAQAAAJAAAAABAAOShgAHAAAAEgAAAHigAgAEAAAAAQAAAGCgAwAEAAAAAQAAAGYAAAAAQVNDSUkAAABTY3JlZW5zaG90TOcgmwAAAAlwSFlzAAAWJQAAFiUBSVIk8AAAAdVpVFh0WE1MOmNvbS5hZG9iZS54bXAAAAAAADx4OnhtcG1ldGEgeG1sbnM6eD0iYWRvYmU6bnM6bWV0YS8iIHg6eG1wdGs9IlhNUCBDb3JlIDYuMC4wIj4KICAgPHJkZjpSREYgeG1sbnM6cmRmPSJodHRwOi8vd3d3LnczLm9yZy8xOTk5LzAyLzIyLXJkZi1zeW50YXgtbnMjIj4KICAgICAgPHJkZjpEZXNjcmlwdGlvbiByZGY6YWJvdXQ9IiIKICAgICAgICAgICAgeG1sbnM6ZXhpZj0iaHR0cDovL25zLmFkb2JlLmNvbS9leGlmLzEuMC8iPgogICAgICAgICA8ZXhpZjpQaXhlbFlEaW1lbnNpb24+MTAyPC9leGlmOlBpeGVsWURpbWVuc2lvbj4KICAgICAgICAgPGV4aWY6UGl4ZWxYRGltZW5zaW9uPjk2PC9leGlmOlBpeGVsWERpbWVuc2lvbj4KICAgICAgICAgPGV4aWY6VXNlckNvbW1lbnQ+U2NyZWVuc2hvdDwvZXhpZjpVc2VyQ29tbWVudD4KICAgICAgPC9yZGY6RGVzY3JpcHRpb24+CiAgIDwvcmRmOlJERj4KPC94OnhtcG1ldGE+CgCFDAYAAAAcaURPVAAAAAIAAAAAAAAAMwAAACgAAAAzAAAAMwAAAoPm38lPAAACT0lEQVR4AeyZ0XHCMAyGFTYIkzBPE17bbgBMUNig7Ssp8zAJbACN6fmO89WIWJYl3ykvgZjY8fdZP5ekuY4b2CZGoDEBYuxvA5sAWf5gAkyAMAHh4a0CTIAwAeHhrQJMgDAB4eGtAkyAMAHh4a0CTIAwAeHhrQJMQDqB4/EIn99f8P76BovFIr0jwTOrrAD3BH34GWA4HOB6uUAzm0H/0kHfddA0jSDO6UNXJ+B0PsN2twW3+sPNVcF6tYZ524ZNar9XJcBB/xjhn0cJsa1t57BZraqJpCoEhJETg++P1xRJ6gU8ihwPPLavIZJUC3gmcmLw/XHtkaRSwNTI8bBje82RpE4AJXJiAvxxjZGkSkCOyPGwY3ttkaRCQGrkuBXt7oLd3fB/9wUxCZoiSVxASuSEACkCpW/cRAWkRM6jCMndX6yCch4XEcC5YnNUVE7AWF/FBZQAxCkYAzq1vaiA0hFReryp8N3viwiQXJElKi4FvD+HXYAGAJILwIOO7VkFaIsAbdfjpLAI0LziNFTkfTVkF6BtgveT9Z8pC2QzvnFrM75xyyrgr8R34xurk58run90Y4WeTPyBhkjKIoCyoqQfBUhXLFmA9ASIRXA7nbKAqJFEFrAfBtgP+6c5SEYOdpEpkbTsl7Dse6zraHtRARpfiIRkplZ0FQLCx8fhpLV9nxJJ6gVojhxM/DORpF4A9QIxSNzt2H8cdX7s/wHUC+QGjPVvAjBCzO0mgBkw1r0JwAgxt5sAZsBY9yYAI8TcbgKYAWPdmwCMEHM7t4BfAAAA//+sbUSOAAABv0lEQVTtmVuugzAMBek+YXWwz97+dlBtRY6vUnX4c038mOMQKh7P17UVrvO6tvM6P0Y49mM79v2jf3VHd38PBYhHQAFiPu3enxMga7hKfPSRmNUzGo/1L/cIyhpmA6P2KLCsntF4rFcBSAS2AgBI1RydWAWoEsd6BQAQmtnE8f5RWwESYgqQAKI7AzZ74ph/1J5dz2g81vt1b0FZw/89EFk9BE5bAUgE9mxBEX5TABKBrQAAkm352cBmx0M77gACoa0AIOIOAJDZE1KNV12P9l4fm3o/OHkIkzhsBQAQH0EAMntCqvGq69GejyACcQeAyGoTt1o9wHUzPYRvSN5/mC3oe/TNP2IEQlsBQMQzAEBmT0g1XnU92vv+tyA2VLWrO6Can+uzeng/7fZDmAmrdtZwtgOq+bk+q4f301YAEhm0FQDA3AEAMtvMJk4BZhNHPAUAkNUmbrV6gOtmegjfkIz9kO3ILFpZgCyB/piAAsR82r0K0I44TqAAMZ92rwK0I44TKEDMp92rAO2I4wQKEPNp9ypAO+I4gQLEfNq9CtCOOE6gADGfdq8CtCOOEyhAzKfdqwDtiOMEChDzaff+AZ7pTSlpAG4mAAAAAElFTkSuQmCC;" vertex="1" parent="1">
          <mxGeometry x="138.65" y="384.5" width="16" height="17" as="geometry" />
        </mxCell>
        <mxCell id="ovNdQlZxgXla1siBlJx2-435" value="" style="shape=image;verticalLabelPosition=bottom;labelBackgroundColor=default;verticalAlign=top;aspect=fixed;imageAspect=0;image=data:image/png,iVBORw0KGgoAAAANSUhEUgAAAGIAAABkCAYAAAB9/OUTAAAMT2lDQ1BJQ0MgUHJvZmlsZQAASImVVwdYU8kWnltSIQQIhCIl9CaISAkgJYQWQHoRRCUkAUKJMSGo2NHFFVy7iGBZ0VUQxQ6I2FBXXVkUC+haFgsqK+viutiVNyGALvvK9+b75s5//znzzznnztx7BwB6F18qzUU1AciT5MtiQwJYk5NTWKQeQAZ6AAOWwIkvkEs50dERAJbh9u/ldQdAlO11R6XWP/v/a9ESiuQCAJBoiNOFckEexEcAwJsFUlk+AEQp5C1m5UuVeD3EOjLoIMTVSpypws1KnK7CVwdt4mO5ED8GgKzO58syAdDogzyrQJAJdegwWuAsEYolEPtD7JuXN0MI8SKIbaENnJOu1Genf6WT+TfN9BFNPj9zBKtiGSzkQLFcmsuf83+m43+XvFzF8Bw2sKpnyUJjlTHDvD3OmRGuxOoQv5WkR0ZBrA0AiouFg/ZKzMxShCao7FFbgZwLcwaYEE+U58bxhvhYIT8wHGIjiDMkuZERQzZFGeJgpQ3MH1ouzufFQ6wPcbVIHhQ3ZHNaNiN2eN6ODBmXM8Q/48sGfVDqf1bkJHBU+ph2log3pI85FWbFJ0FMhTiwQJwYCbEGxJHynLjwIZvUwixu5LCNTBGrjMUSYplIEhKg0sfKMmTBsUP2e/Lkw7Fjp7PEvMghfC0/Kz5UlSvssYA/6D+MBesTSTgJwzoi+eSI4ViEosAgVew4WSRJiFPxuL40PyBWNRa3l+ZGD9njAaLcECVvDnG8vCBueGxBPlycKn28WJofHa/yE6/I5odFq/zBD4AIwAWBgAUUsKaDGSAbiNt6G3rhnaonGPCBDGQCEXAcYoZHJA32SOA1DhSC3yESAfnIuIDBXhEogPynUaySE49wqqsjyBjqU6rkgCcQ54FwkAvvFYNKkhEPEsFjyIj/4REfVgGMIRdWZf+/54fZLwwHMhFDjGJ4RhZ92JIYRAwkhhKDiXa4Ie6Le+MR8OoPqwvOxj2H4/hiT3hCaCc8JNwkdBFuTxcXyUZ5OQl0Qf3gofykf50f3BpquuEBuA9Uh8o4EzcEjrgrnIeD+8GZ3SDLHfJbmRXWKO2/RfDVExqyozhTUIoexZ9iO3qkhr2G24iKMtdf50fla/pIvrkjPaPn536VfSFsw0dbYt9ih7EL2BnsEtaMNQAWdgprxFqxE0o8suIeD6644dliB/3JgTqj18yXJ6vMpNy51rnH+aOqL180O1+5GbkzpHNk4sysfBYHfjFELJ5E4DSW5eLs4gaA8vujer29ihn8riDM1i/ckl8B8Dk1MDBw/AsXdgqAgx7wlXDsC2fLhp8WNQAuHhMoZAUqDldeCPDNQYe7zwCYAAtgC+NxAe7AG/iDIBAGokA8SAbToPdZcJ3LwCwwDywGxaAUrAYbQAXYBnaAarAPHAINoBmcAT+Cy+AquAnuwNXTDZ6DPvAafEAQhITQEAZigJgiVogD4oKwEV8kCIlAYpFkJA3JRCSIApmHLEFKkbVIBbIdqUEOIseQM8glpB25jTxAepA/kfcohqqjOqgxao2OQ9koBw1H49GpaCY6Ey1El6Ir0XK0Ct2L1qNn0MvoTbQLfY72YwBTw5iYGeaIsTEuFoWlYBmYDFuAlWBlWBVWhzXB53wd68J6sXc4EWfgLNwRruBQPAEX4DPxBfgKvAKvxuvxc/h1/AHeh38m0AhGBAeCF4FHmEzIJMwiFBPKCLsIRwnn4V7qJrwmEolMog3RA+7FZGI2cS5xBXELcT/xNLGd+IjYTyKRDEgOJB9SFIlPyicVkzaR9pJOka6RuklvyWpkU7ILOZicQpaQi8hl5D3kk+Rr5KfkDxRNihXFixJFEVLmUFZRdlKaKFco3ZQPVC2qDdWHGk/Npi6mllPrqOepd6mv1NTUzNU81WLUxGqL1MrVDqhdVHug9k5dW91enaueqq5QX6m+W/20+m31VzQazZrmT0uh5dNW0mpoZ2n3aW81GBpOGjwNocZCjUqNeo1rGi/oFLoVnUOfRi+kl9EP06/QezUpmtaaXE2+5gLNSs1jmp2a/VoMrfFaUVp5Wiu09mhd0nqmTdK21g7SFmov1d6hfVb7EQNjWDC4DAFjCWMn4zyjW4eoY6PD08nWKdXZp9Om06erreuqm6g7W7dS94RuFxNjWjN5zFzmKuYhZgfzvZ6xHkdPpLdcr07vmt4b/TH6/voi/RL9/fo39d8bsAyCDHIM1hg0GNwzxA3tDWMMZxluNTxv2DtGZ4z3GMGYkjGHxvxihBrZG8UazTXaYdRq1G9sYhxiLDXeZHzWuNeEaeJvkm2y3uSkSY8pw9TXVGy63vSU6W8sXRaHlcsqZ51j9ZkZmYWaKcy2m7WZfTC3MU8wLzLfb37PgmrBtsiwWG/RYtFnaWo5yXKeZa3lL1YUK7ZVltVGqwtWb6xtrJOsl1k3WD+z0bfh2RTa1NrctaXZ+tnOtK2yvWFHtGPb5dhtsbtqj9q72WfZV9pfcUAd3B3EDlsc2scSxnqOlYytGtvpqO7IcSxwrHV84MR0inAqcmpwejHOclzKuDXjLoz77OzmnOu80/nOeO3xYeOLxjeN/9PF3kXgUulyYwJtQvCEhRMaJ7x0dXAVuW51veXGcJvktsytxe2Tu4e7zL3OvcfD0iPNY7NHJ1uHHc1ewb7oSfAM8Fzo2ez5zsvdK9/rkNcf3o7eOd57vJ9NtJkomrhz4iMfcx++z3afLl+Wb5rv975dfmZ+fL8qv4f+Fv5C/13+Tzl2nGzOXs6LAOcAWcDRgDdcL+587ulALDAksCSwLUg7KCGoIuh+sHlwZnBtcF+IW8jckNOhhNDw0DWhnTxjnoBXw+sL8wibH3YuXD08Lrwi/GGEfYQsomkSOils0rpJdyOtIiWRDVEgihe1LupetE30zOjjMcSY6JjKmCex42PnxV6IY8RNj9sT9zo+IH5V/J0E2wRFQksiPTE1sSbxTVJg0tqkrsnjJs+ffDnZMFmc3JhCSklM2ZXSPyVoyoYp3aluqcWpHVNtps6eemma4bTcaSem06fzpx9OI6Qlpe1J+8iP4lfx+9N56ZvT+wRcwUbBc6G/cL2wR+QjWit6muGTsTbjWaZP5rrMniy/rLKsXjFXXCF+mR2avS37TU5Uzu6cgdyk3P155Ly0vGMSbUmO5NwMkxmzZ7RLHaTF0q6ZXjM3zOyThct2yRH5VHljvg780W9V2Cq+UTwo8C2oLHg7K3HW4dlasyWzW+fYz1k+52lhcOEPc/G5grkt88zmLZ73YD5n/vYFyIL0BS0LLRYuXdi9KGRR9WLq4pzFPxc5F60t+mtJ0pKmpcZLFy199E3IN7XFGsWy4s5l3su2fYt/K/62bfmE5ZuWfy4RlvxU6lxaVvpxhWDFT9+N/678u4GVGSvbVrmv2rqauFqyumON35rqtVprC9c+WjdpXf161vqS9X9tmL7hUplr2baN1I2KjV3lEeWNmyw3rd70sSKr4mZlQOX+zUabl29+s0W45dpW/61124y3lW57/734+1vbQ7bXV1lXle0g7ijY8WRn4s4LP7B/qNlluKt016fdkt1d1bHV52o8amr2GO1ZVYvWKmp79qbuvbovcF9jnWPd9v3M/aUHwAHFgd8Oph3sOBR+qOUw+3DdEasjm48yjpbUI/Vz6vsashq6GpMb24+FHWtp8m46etzp+O5ms+bKE7onVp2knlx6cuBU4an+09LTvWcyzzxqmd5y5+zkszfOxZxrOx9+/uKPwT+evcC5cOqiz8XmS16Xjv3E/qnhsvvl+la31qM/u/18tM29rf6Kx5XGq55Xm9ontp+85nftzPXA6z/e4N24fDPyZntHQsetztTOrlvCW89u595++UvBLx/uLLpLuFtyT/Ne2X2j+1W/2v26v8u968SDwAetD+Me3nkkePT8sfzxx+6lT2hPyp6aPq155vKsuSe45+pvU37rfi59/qG3+Het3ze/sH1x5A//P1r7Jvd1v5S9HPhzxSuDV7v/cv2rpT+6//7rvNcf3pS8NXhb/Y797sL7pPdPP8z6SPpY/snuU9Pn8M93B/IGBqR8GX/wVwADyqNNBgB/7gaAlgwAA54bqVNU58PBgqjOtIMI/CesOkMOFncA6uA/fUwv/LvpBODATgCsoT49FYBoGgDxngCdMGGkDp/lBs+dykKEZ4Pvoz6l56WDf1NUZ9Kv/B7dAqWqKxjd/gvN04Mn2FAI/wAAAIplWElmTU0AKgAAAAgABAEaAAUAAAABAAAAPgEbAAUAAAABAAAARgEoAAMAAAABAAIAAIdpAAQAAAABAAAATgAAAAAAAACQAAAAAQAAAJAAAAABAAOShgAHAAAAEgAAAHigAgAEAAAAAQAAAGKgAwAEAAAAAQAAAGQAAAAAQVNDSUkAAABTY3JlZW5zaG905TzaowAAAAlwSFlzAAAWJQAAFiUBSVIk8AAAAdVpVFh0WE1MOmNvbS5hZG9iZS54bXAAAAAAADx4OnhtcG1ldGEgeG1sbnM6eD0iYWRvYmU6bnM6bWV0YS8iIHg6eG1wdGs9IlhNUCBDb3JlIDYuMC4wIj4KICAgPHJkZjpSREYgeG1sbnM6cmRmPSJodHRwOi8vd3d3LnczLm9yZy8xOTk5LzAyLzIyLXJkZi1zeW50YXgtbnMjIj4KICAgICAgPHJkZjpEZXNjcmlwdGlvbiByZGY6YWJvdXQ9IiIKICAgICAgICAgICAgeG1sbnM6ZXhpZj0iaHR0cDovL25zLmFkb2JlLmNvbS9leGlmLzEuMC8iPgogICAgICAgICA8ZXhpZjpQaXhlbFlEaW1lbnNpb24+MTAwPC9leGlmOlBpeGVsWURpbWVuc2lvbj4KICAgICAgICAgPGV4aWY6UGl4ZWxYRGltZW5zaW9uPjk4PC9leGlmOlBpeGVsWERpbWVuc2lvbj4KICAgICAgICAgPGV4aWY6VXNlckNvbW1lbnQ+U2NyZWVuc2hvdDwvZXhpZjpVc2VyQ29tbWVudD4KICAgICAgPC9yZGY6RGVzY3JpcHRpb24+CiAgIDwvcmRmOlJERj4KPC94OnhtcG1ldGE+Cqg7v7wAAAAcaURPVAAAAAIAAAAAAAAAMgAAACgAAAAyAAAAMgAAAmqStGUjAAACNklEQVR4AeybsU7CUBSGT0OYmBlwwEFglNAnYMZBTcQHsLgqgiTqpiZqYFETYvBBZJGR4IbBhAmcGBiZLJsiYWEgbU8v7W37dyM9597z/98996ZNUX5nF+Fy3QEFIFxnMC8AIOTgQAABEJI4IEkZ6AiAkMQBScpARwCEJA5IUgY6Imggel89Oq9UVspOb6epVq2uvL/uG27X51hHuC3UCKTb9QHEghBALIzA1uTQ21e3Vxy2JklaHyAAwmgNzO/jsJZkoQgF0f3sUqfzQYPhgIbDb9L1H1OrwZNBikIbsRglthKUSqVoJ5ejSCTCliIEhK7r1Hht0FuzyS7E64nRaJTKpTKpmQxLim0Qk8mEToqnNB6PWQX4KmnWJceaRvmDvGVZtkFc395Qu922PLFfE0KhED0/PlEymbQk0RaI91aLqjX33g9ZUupgcDy+SS/1OoXDYdOz2gJRLJ1Rv983PVmQAh/u7klVVdOS2SD+H8h39/doOp2anixIgQWtQId582cFG8RoNKKjghYkby1pzWazdHVxaTqHDUL2d0emHWAGitYPEADBdECSNHQEQCw7IHpFLI8u/y/R+nFGMJkDBNM40WkAIdpR5nieAcHU55s0qx9DrO2M8I2jTCEAwTROdBpAiHaUOR5AMI0TnQYQoh1ljgcQTONEpwGEaEeZ40kDwmohTL2upXnmgQ4grP3xZm0PdAABEI5sV9iaHLHZeBKAMPbIkQiAcMRm40kAwtgjRyJEg/gDAAD//7mIdtoAAAJkSURBVO2bu04CQRSGDyFU1BRaYKFQauAJqLVQE/EBBFsvIInaqYkabNTEGH0QbbQk2mk0oQIrCkoqoVOIUizJMLNnT9Zx96chy8y5fd9sFk2IfPVfxHi9vb/RTqWijJybnaOzalW5rotXBvq04LV/XfzoGBGIGEXyc60DqTtIuvjRqhAxSuT3WgcSIhTgpD+GCGmizHwQwQQnHQYR0kSZ+SCCCU46LDQipMH5nS8w35r8BiddDyKkiTLzQQQTnHQYREgTZeaDCCY46TCIkCbKzAcRTHDSYYERoRtEGpzuDzS39XT9u60Xmn+DuwWjEwMROkKKdYhQgNGdKEUY+2OIUKCDCCcYPCOcPIyvdAfJ7R0IEcbonRshwsnD+MrtCdUlDowI3aC2r0OEJYYgAiKcBKRPhDO7/VfS8//Ztyb7UY/vECLG8/FtFSJ8Qz2+EESM5+PbqjUiWq0WrRULvg3+3wrlcjna390zbpv9sB78vmVxeYl6vZ5xsTBtLBaKtJrPG4/MFjGosFXapnq9blwsTBtPj08om80aj+xJxMPjI1XP1D/PMu4iYBuTySm6vrqiWCxmPJknEYMqB0eHVKvVjAsGfWM0GqXL8wtKpVKuRvUsotPp0MbWJrXbbVeFA7k5EqH1QoHyK+bPhiEHzyIGibrdLt3c3tDd/f0wb+jeE4kElUtlymYyrNlFRAwrv7y+0NPTMzWaDWo2P/qCPodLwXvvn/7JiQmamZ6hdDpNC/PzFI/H2XOKimB3gUCCCEsOAURAhCUELGkDdwREWELAkjZwR0CEJQQsaQN3BERYQsCSNr4B6bdDIKlJUcMAAAAASUVORK5CYII=;" vertex="1" parent="1">
          <mxGeometry x="169" y="385.5" width="15" height="15.31" as="geometry" />
        </mxCell>
        <mxCell id="ovNdQlZxgXla1siBlJx2-436" value="" style="shape=image;verticalLabelPosition=bottom;labelBackgroundColor=default;verticalAlign=top;aspect=fixed;imageAspect=0;image=data:image/png,iVBORw0KGgoAAAANSUhEUgAAAGIAAABkCAYAAAB9/OUTAAAMT2lDQ1BJQ0MgUHJvZmlsZQAASImVVwdYU8kWnltSIQQIhCIl9CaISAkgJYQWQHoRRCUkAUKJMSGo2NHFFVy7iGBZ0VUQxQ6I2FBXXVkUC+haFgsqK+viutiVNyGALvvK9+b75s5//znzzznnztx7BwB6F18qzUU1AciT5MtiQwJYk5NTWKQeQAZ6AAOWwIkvkEs50dERAJbh9u/ldQdAlO11R6XWP/v/a9ESiuQCAJBoiNOFckEexEcAwJsFUlk+AEQp5C1m5UuVeD3EOjLoIMTVSpypws1KnK7CVwdt4mO5ED8GgKzO58syAdDogzyrQJAJdegwWuAsEYolEPtD7JuXN0MI8SKIbaENnJOu1Genf6WT+TfN9BFNPj9zBKtiGSzkQLFcmsuf83+m43+XvFzF8Bw2sKpnyUJjlTHDvD3OmRGuxOoQv5WkR0ZBrA0AiouFg/ZKzMxShCao7FFbgZwLcwaYEE+U58bxhvhYIT8wHGIjiDMkuZERQzZFGeJgpQ3MH1ouzufFQ6wPcbVIHhQ3ZHNaNiN2eN6ODBmXM8Q/48sGfVDqf1bkJHBU+ph2log3pI85FWbFJ0FMhTiwQJwYCbEGxJHynLjwIZvUwixu5LCNTBGrjMUSYplIEhKg0sfKMmTBsUP2e/Lkw7Fjp7PEvMghfC0/Kz5UlSvssYA/6D+MBesTSTgJwzoi+eSI4ViEosAgVew4WSRJiFPxuL40PyBWNRa3l+ZGD9njAaLcECVvDnG8vCBueGxBPlycKn28WJofHa/yE6/I5odFq/zBD4AIwAWBgAUUsKaDGSAbiNt6G3rhnaonGPCBDGQCEXAcYoZHJA32SOA1DhSC3yESAfnIuIDBXhEogPynUaySE49wqqsjyBjqU6rkgCcQ54FwkAvvFYNKkhEPEsFjyIj/4REfVgGMIRdWZf+/54fZLwwHMhFDjGJ4RhZ92JIYRAwkhhKDiXa4Ie6Le+MR8OoPqwvOxj2H4/hiT3hCaCc8JNwkdBFuTxcXyUZ5OQl0Qf3gofykf50f3BpquuEBuA9Uh8o4EzcEjrgrnIeD+8GZ3SDLHfJbmRXWKO2/RfDVExqyozhTUIoexZ9iO3qkhr2G24iKMtdf50fla/pIvrkjPaPn536VfSFsw0dbYt9ih7EL2BnsEtaMNQAWdgprxFqxE0o8suIeD6644dliB/3JgTqj18yXJ6vMpNy51rnH+aOqL180O1+5GbkzpHNk4sysfBYHfjFELJ5E4DSW5eLs4gaA8vujer29ihn8riDM1i/ckl8B8Dk1MDBw/AsXdgqAgx7wlXDsC2fLhp8WNQAuHhMoZAUqDldeCPDNQYe7zwCYAAtgC+NxAe7AG/iDIBAGokA8SAbToPdZcJ3LwCwwDywGxaAUrAYbQAXYBnaAarAPHAINoBmcAT+Cy+AquAnuwNXTDZ6DPvAafEAQhITQEAZigJgiVogD4oKwEV8kCIlAYpFkJA3JRCSIApmHLEFKkbVIBbIdqUEOIseQM8glpB25jTxAepA/kfcohqqjOqgxao2OQ9koBw1H49GpaCY6Ey1El6Ir0XK0Ct2L1qNn0MvoTbQLfY72YwBTw5iYGeaIsTEuFoWlYBmYDFuAlWBlWBVWhzXB53wd68J6sXc4EWfgLNwRruBQPAEX4DPxBfgKvAKvxuvxc/h1/AHeh38m0AhGBAeCF4FHmEzIJMwiFBPKCLsIRwnn4V7qJrwmEolMog3RA+7FZGI2cS5xBXELcT/xNLGd+IjYTyKRDEgOJB9SFIlPyicVkzaR9pJOka6RuklvyWpkU7ILOZicQpaQi8hl5D3kk+Rr5KfkDxRNihXFixJFEVLmUFZRdlKaKFco3ZQPVC2qDdWHGk/Npi6mllPrqOepd6mv1NTUzNU81WLUxGqL1MrVDqhdVHug9k5dW91enaueqq5QX6m+W/20+m31VzQazZrmT0uh5dNW0mpoZ2n3aW81GBpOGjwNocZCjUqNeo1rGi/oFLoVnUOfRi+kl9EP06/QezUpmtaaXE2+5gLNSs1jmp2a/VoMrfFaUVp5Wiu09mhd0nqmTdK21g7SFmov1d6hfVb7EQNjWDC4DAFjCWMn4zyjW4eoY6PD08nWKdXZp9Om06erreuqm6g7W7dS94RuFxNjWjN5zFzmKuYhZgfzvZ6xHkdPpLdcr07vmt4b/TH6/voi/RL9/fo39d8bsAyCDHIM1hg0GNwzxA3tDWMMZxluNTxv2DtGZ4z3GMGYkjGHxvxihBrZG8UazTXaYdRq1G9sYhxiLDXeZHzWuNeEaeJvkm2y3uSkSY8pw9TXVGy63vSU6W8sXRaHlcsqZ51j9ZkZmYWaKcy2m7WZfTC3MU8wLzLfb37PgmrBtsiwWG/RYtFnaWo5yXKeZa3lL1YUK7ZVltVGqwtWb6xtrJOsl1k3WD+z0bfh2RTa1NrctaXZ+tnOtK2yvWFHtGPb5dhtsbtqj9q72WfZV9pfcUAd3B3EDlsc2scSxnqOlYytGtvpqO7IcSxwrHV84MR0inAqcmpwejHOclzKuDXjLoz77OzmnOu80/nOeO3xYeOLxjeN/9PF3kXgUulyYwJtQvCEhRMaJ7x0dXAVuW51veXGcJvktsytxe2Tu4e7zL3OvcfD0iPNY7NHJ1uHHc1ewb7oSfAM8Fzo2ez5zsvdK9/rkNcf3o7eOd57vJ9NtJkomrhz4iMfcx++z3afLl+Wb5rv975dfmZ+fL8qv4f+Fv5C/13+Tzl2nGzOXs6LAOcAWcDRgDdcL+587ulALDAksCSwLUg7KCGoIuh+sHlwZnBtcF+IW8jckNOhhNDw0DWhnTxjnoBXw+sL8wibH3YuXD08Lrwi/GGEfYQsomkSOils0rpJdyOtIiWRDVEgihe1LupetE30zOjjMcSY6JjKmCex42PnxV6IY8RNj9sT9zo+IH5V/J0E2wRFQksiPTE1sSbxTVJg0tqkrsnjJs+ffDnZMFmc3JhCSklM2ZXSPyVoyoYp3aluqcWpHVNtps6eemma4bTcaSem06fzpx9OI6Qlpe1J+8iP4lfx+9N56ZvT+wRcwUbBc6G/cL2wR+QjWit6muGTsTbjWaZP5rrMniy/rLKsXjFXXCF+mR2avS37TU5Uzu6cgdyk3P155Ly0vGMSbUmO5NwMkxmzZ7RLHaTF0q6ZXjM3zOyThct2yRH5VHljvg780W9V2Cq+UTwo8C2oLHg7K3HW4dlasyWzW+fYz1k+52lhcOEPc/G5grkt88zmLZ73YD5n/vYFyIL0BS0LLRYuXdi9KGRR9WLq4pzFPxc5F60t+mtJ0pKmpcZLFy199E3IN7XFGsWy4s5l3su2fYt/K/62bfmE5ZuWfy4RlvxU6lxaVvpxhWDFT9+N/678u4GVGSvbVrmv2rqauFqyumON35rqtVprC9c+WjdpXf161vqS9X9tmL7hUplr2baN1I2KjV3lEeWNmyw3rd70sSKr4mZlQOX+zUabl29+s0W45dpW/61124y3lW57/734+1vbQ7bXV1lXle0g7ijY8WRn4s4LP7B/qNlluKt016fdkt1d1bHV52o8amr2GO1ZVYvWKmp79qbuvbovcF9jnWPd9v3M/aUHwAHFgd8Oph3sOBR+qOUw+3DdEasjm48yjpbUI/Vz6vsashq6GpMb24+FHWtp8m46etzp+O5ms+bKE7onVp2knlx6cuBU4an+09LTvWcyzzxqmd5y5+zkszfOxZxrOx9+/uKPwT+evcC5cOqiz8XmS16Xjv3E/qnhsvvl+la31qM/u/18tM29rf6Kx5XGq55Xm9ontp+85nftzPXA6z/e4N24fDPyZntHQsetztTOrlvCW89u595++UvBLx/uLLpLuFtyT/Ne2X2j+1W/2v26v8u968SDwAetD+Me3nkkePT8sfzxx+6lT2hPyp6aPq155vKsuSe45+pvU37rfi59/qG3+Het3ze/sH1x5A//P1r7Jvd1v5S9HPhzxSuDV7v/cv2rpT+6//7rvNcf3pS8NXhb/Y797sL7pPdPP8z6SPpY/snuU9Pn8M93B/IGBqR8GX/wVwADyqNNBgB/7gaAlgwAA54bqVNU58PBgqjOtIMI/CesOkMOFncA6uA/fUwv/LvpBODATgCsoT49FYBoGgDxngCdMGGkDp/lBs+dykKEZ4Pvoz6l56WDf1NUZ9Kv/B7dAqWqKxjd/gvN04Mn2FAI/wAAAIplWElmTU0AKgAAAAgABAEaAAUAAAABAAAAPgEbAAUAAAABAAAARgEoAAMAAAABAAIAAIdpAAQAAAABAAAATgAAAAAAAACQAAAAAQAAAJAAAAABAAOShgAHAAAAEgAAAHigAgAEAAAAAQAAAGKgAwAEAAAAAQAAAGQAAAAAQVNDSUkAAABTY3JlZW5zaG905TzaowAAAAlwSFlzAAAWJQAAFiUBSVIk8AAAAdVpVFh0WE1MOmNvbS5hZG9iZS54bXAAAAAAADx4OnhtcG1ldGEgeG1sbnM6eD0iYWRvYmU6bnM6bWV0YS8iIHg6eG1wdGs9IlhNUCBDb3JlIDYuMC4wIj4KICAgPHJkZjpSREYgeG1sbnM6cmRmPSJodHRwOi8vd3d3LnczLm9yZy8xOTk5LzAyLzIyLXJkZi1zeW50YXgtbnMjIj4KICAgICAgPHJkZjpEZXNjcmlwdGlvbiByZGY6YWJvdXQ9IiIKICAgICAgICAgICAgeG1sbnM6ZXhpZj0iaHR0cDovL25zLmFkb2JlLmNvbS9leGlmLzEuMC8iPgogICAgICAgICA8ZXhpZjpQaXhlbFlEaW1lbnNpb24+MTAwPC9leGlmOlBpeGVsWURpbWVuc2lvbj4KICAgICAgICAgPGV4aWY6UGl4ZWxYRGltZW5zaW9uPjk4PC9leGlmOlBpeGVsWERpbWVuc2lvbj4KICAgICAgICAgPGV4aWY6VXNlckNvbW1lbnQ+U2NyZWVuc2hvdDwvZXhpZjpVc2VyQ29tbWVudD4KICAgICAgPC9yZGY6RGVzY3JpcHRpb24+CiAgIDwvcmRmOlJERj4KPC94OnhtcG1ldGE+Cqg7v7wAAAAcaURPVAAAAAIAAAAAAAAAMgAAACgAAAAyAAAAMgAAA+34c0LhAAADuUlEQVR4AexYS1MTQRDupBJz5BcAIWwOgBV+jFrq3Rd6kIPBg1pyBkuOyMM/IFVcjQe8caDiJfGAZTYPCWc5gEBe4Exgt7K1szs79rrZSnovu9vTnf7m+7o7k0Qu2QV09Z2BCAnRdw26AEiIcOgAJAQJERIGQgKDOoKECAkDIYExdB3BT+uHh4dQKpWgpOsQiUbg0YOHfZdjoIW4uLiAer0OPxnpOiOdk1+ulOHs7MwkPpPJwLulZfO9Xw8DI0Sn04FfBwddsnW9xMjXocJIbzQartySEK70uC+2222o1mpmlZcY8dVqFZrNpnugYJWEEJAiMrVaLagwknmVG3O9Wq1Bu90SuSvbSAgBZY1mg42Tikk4J56Pmw7rgP91Db0Q5+fnUC6X2cnl6vTCST9gpPMv2CCvoRLi9PQU9DI7tVyfXPgJps6OkJcBky4SeOCF4KeYvb09+JzLQf5bPvBKF5Eusg20EDtfd2B9YxOOjn6L9h4q28AK8WlrCzY/bvaF7Gg0CqOjo5DW0qBpGrtrcPLnBN4uLjrimc3MwvLSkuN6UAu+/qD7sL4G29vbgWCPxeKQTI5fkz7ZJT6VSkHiRsKSv/i9CC+yWYut92XghMjn8/DqzevePfr2nEgkIDWRAi19VeW82pPjSYjFYtIcQyUE/yPt8dwTqLFfu9grHo/D1NQUaJO8ytPd8cLHDR87/3JhhcDGe8Xsy2jKfcnB+5UVrzld/fz+8iwUi5BdcB5NsnzYeNfN9iz6IkT25QIUCoWejxU8RiJwc2YGRkZGYHd3V+BwZZIR4xjosIAlEhvvAMtm9kWIu/fvsaPqke3DDcP09DQ8m3sK6XQagmp1Izc2HzbewCG7o4U4Pj6GW3duu+bZWN+A8bGxrk9QGzMAYfNh4w0csjtaiP0f+/B8ft4xzwQ77aytrprrQW3MSIjNh403cMjuaCFUgar6yzYgW8fmw8bL8BnrJITklzUJYZQK8o4lEhvvFT51BHWEuFb8/u8HW9HYePEu7VbqCOoIe1VwC3WEmBepVbV1Vf2lACQO2HzYeAk8c5lGE40msxgsDzSaLHR4f1FtXVV/70jEnth82HgxKruVRhONJntVcAuNJjEvUqtq66r6SwFIHLD5sPESeOYyjSYaTWYxWB5oNFno8P6i2rqq/t6RiD2x+bDxYlR2K40mGk32quAWGk1iXqRW1dZV9ZcCkDhg82HjJfDMZRpNNJrMYrA80Giy0OH9RbV1Vf29IxF7YvNh48Wo7FYaTSEZTX8BAAD//wYq7q0AAAOfSURBVO2az08TQRTHX5twoeUAF/rDhGC6vVmCJ7nJCS8Y9T/w5xUV6kXOYoqHYiTExJ8H9UowkTNeKU1s00jSn7Q2cJcICC3O1LbS7Q477TQ4s31LCLszb2befL5v3g67azsmBwgcsXgMZoJBZg8jgRGYD4Xq9a3a1xu2eSI6nmh7XrdtKERjoOjBoRB6Im1ei4IUbc/rNq4IXerUg0Mh9ETavBYFKdqe121cEbgijGNFv8sytuIvFY1o0fa8nuKKwBVhHCu4Ioy5mJa2unRbtTd1wMRAdDzR9ibu1asxNWFqqgdDwwmmpgYc/BetLt1W7fk9MbYUHU+0vbFXzaWYmjA1NUcFLelkaqIPlte+rsGTuTnjwTjGwxXBRGdcUSqVIF/IQyqVJr8pSKaSkE5nYG/vl3GDamkgEIBnoXmmzbdYDIKP2I/5zdozO9ZVKJmaDg8PIZfLEdipOvQsuf59cKCbnvmlGUgUosrwgMBNZzIEeLIOPre1BaWjI3PKHBYoBAPS0NAQXJmYqEJPQ+FHAY7LZYa1eDEKIc6wIz2YbQ4sdbN+SnYtyWQSvm9uwnpkHSKRSEcgdqKTrhHC4XSCjfzs7v7sBDfxPmw2OOf1gubTQNM0CAQugF/zM/u1zM2aOcOzqCDQvR5PBTiFTcFrPh/09vZyj26Z1MQ9Y1FDAt3jdoPfT4CTaPcT6D4C3eFwCPWMQpyGrwqdRjgFXkszotCNhkQhTlBxuz1/gVfB00h3knvPWRxdK4SbpJdKaqEpRvNVzs8KupGwXSGEy+Wq7FgqN9FqtP9P6F0hBN3GXhwd/RftJL309fUZzV2qMkutiLFLY3B/agr6+/ulgszjjGWEsNvt8OnDRyVFoEIpI0QikYAH0w+ZwTU8fB5eLi0x62WvUEaIYrEIN2/fYvLs6emBN69ew+DgINNG5gplhNjf34drN65D+ZRH1XRLenVyEsYvj8PAwIDM3Jt8U0YI6vl0cAbi8XjTJLqhwOx9Bi8D4VeldKCVzyvwYnGRd0xL2UklBH2HfOfeXdje3rYUZJ7JSCUEdXgjugGPZ2dPvVfwTEw1G+mEoAC/rK5CeCGsGkshf6UUgs4oGo1C+PkC7OzsCE1QlcbSCkEB0k9g3r5/B8vLy5ZPVVILUYvmrXy+sq3NZDOQId8mZbM50y/vam1V+auEEKrAlMHPjvwfIcNEVPcBhZBEQRQChZCEgCRu4IpAISQhIIkbuCIkEeIPZn5DTbqle3gAAAAASUVORK5CYII=;" vertex="1" parent="1">
          <mxGeometry x="200.2" y="385.5" width="15" height="15.31" as="geometry" />
        </mxCell>
        <mxCell id="ovNdQlZxgXla1siBlJx2-437" value="" style="shape=image;verticalLabelPosition=bottom;labelBackgroundColor=default;verticalAlign=top;aspect=fixed;imageAspect=0;image=data:image/png,iVBORw0KGgoAAAANSUhEUgAAAGwAAABqCAYAAABZP7TQAAAMT2lDQ1BJQ0MgUHJvZmlsZQAASImVVwdYU8kWnltSIQQIhCIl9CaISAkgJYQWQHoRRCUkAUKJMSGo2NHFFVy7iGBZ0VUQxQ6I2FBXXVkUC+haFgsqK+viutiVNyGALvvK9+b75s5//znzzznnztx7BwB6F18qzUU1AciT5MtiQwJYk5NTWKQeQAZ6AAOWwIkvkEs50dERAJbh9u/ldQdAlO11R6XWP/v/a9ESiuQCAJBoiNOFckEexEcAwJsFUlk+AEQp5C1m5UuVeD3EOjLoIMTVSpypws1KnK7CVwdt4mO5ED8GgKzO58syAdDogzyrQJAJdegwWuAsEYolEPtD7JuXN0MI8SKIbaENnJOu1Genf6WT+TfN9BFNPj9zBKtiGSzkQLFcmsuf83+m43+XvFzF8Bw2sKpnyUJjlTHDvD3OmRGuxOoQv5WkR0ZBrA0AiouFg/ZKzMxShCao7FFbgZwLcwaYEE+U58bxhvhYIT8wHGIjiDMkuZERQzZFGeJgpQ3MH1ouzufFQ6wPcbVIHhQ3ZHNaNiN2eN6ODBmXM8Q/48sGfVDqf1bkJHBU+ph2log3pI85FWbFJ0FMhTiwQJwYCbEGxJHynLjwIZvUwixu5LCNTBGrjMUSYplIEhKg0sfKMmTBsUP2e/Lkw7Fjp7PEvMghfC0/Kz5UlSvssYA/6D+MBesTSTgJwzoi+eSI4ViEosAgVew4WSRJiFPxuL40PyBWNRa3l+ZGD9njAaLcECVvDnG8vCBueGxBPlycKn28WJofHa/yE6/I5odFq/zBD4AIwAWBgAUUsKaDGSAbiNt6G3rhnaonGPCBDGQCEXAcYoZHJA32SOA1DhSC3yESAfnIuIDBXhEogPynUaySE49wqqsjyBjqU6rkgCcQ54FwkAvvFYNKkhEPEsFjyIj/4REfVgGMIRdWZf+/54fZLwwHMhFDjGJ4RhZ92JIYRAwkhhKDiXa4Ie6Le+MR8OoPqwvOxj2H4/hiT3hCaCc8JNwkdBFuTxcXyUZ5OQl0Qf3gofykf50f3BpquuEBuA9Uh8o4EzcEjrgrnIeD+8GZ3SDLHfJbmRXWKO2/RfDVExqyozhTUIoexZ9iO3qkhr2G24iKMtdf50fla/pIvrkjPaPn536VfSFsw0dbYt9ih7EL2BnsEtaMNQAWdgprxFqxE0o8suIeD6644dliB/3JgTqj18yXJ6vMpNy51rnH+aOqL180O1+5GbkzpHNk4sysfBYHfjFELJ5E4DSW5eLs4gaA8vujer29ihn8riDM1i/ckl8B8Dk1MDBw/AsXdgqAgx7wlXDsC2fLhp8WNQAuHhMoZAUqDldeCPDNQYe7zwCYAAtgC+NxAe7AG/iDIBAGokA8SAbToPdZcJ3LwCwwDywGxaAUrAYbQAXYBnaAarAPHAINoBmcAT+Cy+AquAnuwNXTDZ6DPvAafEAQhITQEAZigJgiVogD4oKwEV8kCIlAYpFkJA3JRCSIApmHLEFKkbVIBbIdqUEOIseQM8glpB25jTxAepA/kfcohqqjOqgxao2OQ9koBw1H49GpaCY6Ey1El6Ir0XK0Ct2L1qNn0MvoTbQLfY72YwBTw5iYGeaIsTEuFoWlYBmYDFuAlWBlWBVWhzXB53wd68J6sXc4EWfgLNwRruBQPAEX4DPxBfgKvAKvxuvxc/h1/AHeh38m0AhGBAeCF4FHmEzIJMwiFBPKCLsIRwnn4V7qJrwmEolMog3RA+7FZGI2cS5xBXELcT/xNLGd+IjYTyKRDEgOJB9SFIlPyicVkzaR9pJOka6RuklvyWpkU7ILOZicQpaQi8hl5D3kk+Rr5KfkDxRNihXFixJFEVLmUFZRdlKaKFco3ZQPVC2qDdWHGk/Npi6mllPrqOepd6mv1NTUzNU81WLUxGqL1MrVDqhdVHug9k5dW91enaueqq5QX6m+W/20+m31VzQazZrmT0uh5dNW0mpoZ2n3aW81GBpOGjwNocZCjUqNeo1rGi/oFLoVnUOfRi+kl9EP06/QezUpmtaaXE2+5gLNSs1jmp2a/VoMrfFaUVp5Wiu09mhd0nqmTdK21g7SFmov1d6hfVb7EQNjWDC4DAFjCWMn4zyjW4eoY6PD08nWKdXZp9Om06erreuqm6g7W7dS94RuFxNjWjN5zFzmKuYhZgfzvZ6xHkdPpLdcr07vmt4b/TH6/voi/RL9/fo39d8bsAyCDHIM1hg0GNwzxA3tDWMMZxluNTxv2DtGZ4z3GMGYkjGHxvxihBrZG8UazTXaYdRq1G9sYhxiLDXeZHzWuNeEaeJvkm2y3uSkSY8pw9TXVGy63vSU6W8sXRaHlcsqZ51j9ZkZmYWaKcy2m7WZfTC3MU8wLzLfb37PgmrBtsiwWG/RYtFnaWo5yXKeZa3lL1YUK7ZVltVGqwtWb6xtrJOsl1k3WD+z0bfh2RTa1NrctaXZ+tnOtK2yvWFHtGPb5dhtsbtqj9q72WfZV9pfcUAd3B3EDlsc2scSxnqOlYytGtvpqO7IcSxwrHV84MR0inAqcmpwejHOclzKuDXjLoz77OzmnOu80/nOeO3xYeOLxjeN/9PF3kXgUulyYwJtQvCEhRMaJ7x0dXAVuW51veXGcJvktsytxe2Tu4e7zL3OvcfD0iPNY7NHJ1uHHc1ewb7oSfAM8Fzo2ez5zsvdK9/rkNcf3o7eOd57vJ9NtJkomrhz4iMfcx++z3afLl+Wb5rv975dfmZ+fL8qv4f+Fv5C/13+Tzl2nGzOXs6LAOcAWcDRgDdcL+587ulALDAksCSwLUg7KCGoIuh+sHlwZnBtcF+IW8jckNOhhNDw0DWhnTxjnoBXw+sL8wibH3YuXD08Lrwi/GGEfYQsomkSOils0rpJdyOtIiWRDVEgihe1LupetE30zOjjMcSY6JjKmCex42PnxV6IY8RNj9sT9zo+IH5V/J0E2wRFQksiPTE1sSbxTVJg0tqkrsnjJs+ffDnZMFmc3JhCSklM2ZXSPyVoyoYp3aluqcWpHVNtps6eemma4bTcaSem06fzpx9OI6Qlpe1J+8iP4lfx+9N56ZvT+wRcwUbBc6G/cL2wR+QjWit6muGTsTbjWaZP5rrMniy/rLKsXjFXXCF+mR2avS37TU5Uzu6cgdyk3P155Ly0vGMSbUmO5NwMkxmzZ7RLHaTF0q6ZXjM3zOyThct2yRH5VHljvg780W9V2Cq+UTwo8C2oLHg7K3HW4dlasyWzW+fYz1k+52lhcOEPc/G5grkt88zmLZ73YD5n/vYFyIL0BS0LLRYuXdi9KGRR9WLq4pzFPxc5F60t+mtJ0pKmpcZLFy199E3IN7XFGsWy4s5l3su2fYt/K/62bfmE5ZuWfy4RlvxU6lxaVvpxhWDFT9+N/678u4GVGSvbVrmv2rqauFqyumON35rqtVprC9c+WjdpXf161vqS9X9tmL7hUplr2baN1I2KjV3lEeWNmyw3rd70sSKr4mZlQOX+zUabl29+s0W45dpW/61124y3lW57/734+1vbQ7bXV1lXle0g7ijY8WRn4s4LP7B/qNlluKt016fdkt1d1bHV52o8amr2GO1ZVYvWKmp79qbuvbovcF9jnWPd9v3M/aUHwAHFgd8Oph3sOBR+qOUw+3DdEasjm48yjpbUI/Vz6vsashq6GpMb24+FHWtp8m46etzp+O5ms+bKE7onVp2knlx6cuBU4an+09LTvWcyzzxqmd5y5+zkszfOxZxrOx9+/uKPwT+evcC5cOqiz8XmS16Xjv3E/qnhsvvl+la31qM/u/18tM29rf6Kx5XGq55Xm9ontp+85nftzPXA6z/e4N24fDPyZntHQsetztTOrlvCW89u595++UvBLx/uLLpLuFtyT/Ne2X2j+1W/2v26v8u968SDwAetD+Me3nkkePT8sfzxx+6lT2hPyp6aPq155vKsuSe45+pvU37rfi59/qG3+Het3ze/sH1x5A//P1r7Jvd1v5S9HPhzxSuDV7v/cv2rpT+6//7rvNcf3pS8NXhb/Y797sL7pPdPP8z6SPpY/snuU9Pn8M93B/IGBqR8GX/wVwADyqNNBgB/7gaAlgwAA54bqVNU58PBgqjOtIMI/CesOkMOFncA6uA/fUwv/LvpBODATgCsoT49FYBoGgDxngCdMGGkDp/lBs+dykKEZ4Pvoz6l56WDf1NUZ9Kv/B7dAqWqKxjd/gvN04Mn2FAI/wAAAIplWElmTU0AKgAAAAgABAEaAAUAAAABAAAAPgEbAAUAAAABAAAARgEoAAMAAAABAAIAAIdpAAQAAAABAAAATgAAAAAAAACQAAAAAQAAAJAAAAABAAOShgAHAAAAEgAAAHigAgAEAAAAAQAAAGygAwAEAAAAAQAAAGoAAAAAQVNDSUkAAABTY3JlZW5zaG90Dt0wiQAAAAlwSFlzAAAWJQAAFiUBSVIk8AAAAdZpVFh0WE1MOmNvbS5hZG9iZS54bXAAAAAAADx4OnhtcG1ldGEgeG1sbnM6eD0iYWRvYmU6bnM6bWV0YS8iIHg6eG1wdGs9IlhNUCBDb3JlIDYuMC4wIj4KICAgPHJkZjpSREYgeG1sbnM6cmRmPSJodHRwOi8vd3d3LnczLm9yZy8xOTk5LzAyLzIyLXJkZi1zeW50YXgtbnMjIj4KICAgICAgPHJkZjpEZXNjcmlwdGlvbiByZGY6YWJvdXQ9IiIKICAgICAgICAgICAgeG1sbnM6ZXhpZj0iaHR0cDovL25zLmFkb2JlLmNvbS9leGlmLzEuMC8iPgogICAgICAgICA8ZXhpZjpQaXhlbFlEaW1lbnNpb24+MTA2PC9leGlmOlBpeGVsWURpbWVuc2lvbj4KICAgICAgICAgPGV4aWY6UGl4ZWxYRGltZW5zaW9uPjEwODwvZXhpZjpQaXhlbFhEaW1lbnNpb24+CiAgICAgICAgIDxleGlmOlVzZXJDb21tZW50PlNjcmVlbnNob3Q8L2V4aWY6VXNlckNvbW1lbnQ+CiAgICAgIDwvcmRmOkRlc2NyaXB0aW9uPgogICA8L3JkZjpSREY+CjwveDp4bXBtZXRhPgqBLj7GAAAAHGlET1QAAAACAAAAAAAAADUAAAAoAAAANQAAADUAAAHVFJRVbwAAAaFJREFUeAHs2uFtgzAQhmFnB5gM1km7QpU5YBJmYYNGjZx/SMFniO27a978g7PM5XswIoHLuq5/gY+bBC6AubF6NgqYL68AGGDOEnDWLisMMGcJOGuXFQaYswSctcsKA8xZAs7aZYUB5iwBZ+2ywgBrl8A0z2Gap90DjsMYxmHYrXssuF5hgDk75QADzHwCXBLNE20bBGybh/ktwMwTbRsEbJuH+a2iYNJdm/k0hAb7vg/f16/QdZ0wsl4ZsIPZaqMBdhAsDtdEA+wEmCYaYCfBtNAAewNMAw2wN8FaowFWAKwlWlMwj8+nlmUJP7dbuN9/Rdqui7/Trs+7SHHwyQGAZQRnCQ2wDLA4xAoaYJlgVtAAA+x/vhTDJfHAma091ApWzIFLonA2WMJqDiZk47rc6h/8pivMtUii+VZYsQXAEhA5pZZYgOWIJMa0xgIsgSGVNLAAk1R26lpYgO2ApHZrYgGWknlR08YqDvbiO1bdJb0H6fH5mxRY0dt66WCl64CVTrTyfIBVDrj09ICVTrTyfIBVDrj09ICVTrTyfJ8I9gAAAP//bpYtywAAAXNJREFU7dnBDYJAFATQJdoSlUAdxBYM7UBlSA2af+BIkGSHMH9mLx5Ixs88VkWadV2/hXRN81ymedqdvu/60nfd7nHGA81VYMuylPc4ls9nYezpr5nj4oiLBLkuAVPACqQUYCpYKcCUsOjB1LCowRSxaMFUsSjBlLHowM5gPR7P8hqG0rZtnCfNusONepX7MAWsuKpSgKlgpQBTwjJYNEC2/JFosNMN+EfHicpS7LDtfBW+z1KBBdwZtA060yvl4xVlNEow5Z1GC6aKRg2miEYPpoaWAkwJLQ2YCloqsECrve5wI1v7nI7yqvw1dfQmqOMGQzULyjUYqFhUrMFQzYJyDQYqFhVrMFSzoFyDgYpFxRoM1Swo12CgYlGxBkM1C8o1GKhYVKzBUM2Ccg0GKhYVazBUs6Bcg4GKRcUaDNWsc6s1QP08rFoLREEGI8KKUQ1mMLIGyMb1DjMYWQNk43qHGYysAbJxvcMMRtYA2bjeYWRgP/P1MKOQuxWIAAAAAElFTkSuQmCC;" vertex="1" parent="1">
          <mxGeometry x="233.6" y="385.75" width="15.79" height="15.5" as="geometry" />
        </mxCell>
        <mxCell id="ovNdQlZxgXla1siBlJx2-438" value="" style="shape=image;verticalLabelPosition=bottom;labelBackgroundColor=default;verticalAlign=top;aspect=fixed;imageAspect=0;image=data:image/png,iVBORw0KGgoAAAANSUhEUgAAAGgAAABsCAYAAACGjfe3AAAMT2lDQ1BJQ0MgUHJvZmlsZQAASImVVwdYU8kWnltSIQQIhCIl9CaISAkgJYQWQHoRRCUkAUKJMSGo2NHFFVy7iGBZ0VUQxQ6I2FBXXVkUC+haFgsqK+viutiVNyGALvvK9+b75s5//znzzznnztx7BwB6F18qzUU1AciT5MtiQwJYk5NTWKQeQAZ6AAOWwIkvkEs50dERAJbh9u/ldQdAlO11R6XWP/v/a9ESiuQCAJBoiNOFckEexEcAwJsFUlk+AEQp5C1m5UuVeD3EOjLoIMTVSpypws1KnK7CVwdt4mO5ED8GgKzO58syAdDogzyrQJAJdegwWuAsEYolEPtD7JuXN0MI8SKIbaENnJOu1Genf6WT+TfN9BFNPj9zBKtiGSzkQLFcmsuf83+m43+XvFzF8Bw2sKpnyUJjlTHDvD3OmRGuxOoQv5WkR0ZBrA0AiouFg/ZKzMxShCao7FFbgZwLcwaYEE+U58bxhvhYIT8wHGIjiDMkuZERQzZFGeJgpQ3MH1ouzufFQ6wPcbVIHhQ3ZHNaNiN2eN6ODBmXM8Q/48sGfVDqf1bkJHBU+ph2log3pI85FWbFJ0FMhTiwQJwYCbEGxJHynLjwIZvUwixu5LCNTBGrjMUSYplIEhKg0sfKMmTBsUP2e/Lkw7Fjp7PEvMghfC0/Kz5UlSvssYA/6D+MBesTSTgJwzoi+eSI4ViEosAgVew4WSRJiFPxuL40PyBWNRa3l+ZGD9njAaLcECVvDnG8vCBueGxBPlycKn28WJofHa/yE6/I5odFq/zBD4AIwAWBgAUUsKaDGSAbiNt6G3rhnaonGPCBDGQCEXAcYoZHJA32SOA1DhSC3yESAfnIuIDBXhEogPynUaySE49wqqsjyBjqU6rkgCcQ54FwkAvvFYNKkhEPEsFjyIj/4REfVgGMIRdWZf+/54fZLwwHMhFDjGJ4RhZ92JIYRAwkhhKDiXa4Ie6Le+MR8OoPqwvOxj2H4/hiT3hCaCc8JNwkdBFuTxcXyUZ5OQl0Qf3gofykf50f3BpquuEBuA9Uh8o4EzcEjrgrnIeD+8GZ3SDLHfJbmRXWKO2/RfDVExqyozhTUIoexZ9iO3qkhr2G24iKMtdf50fla/pIvrkjPaPn536VfSFsw0dbYt9ih7EL2BnsEtaMNQAWdgprxFqxE0o8suIeD6644dliB/3JgTqj18yXJ6vMpNy51rnH+aOqL180O1+5GbkzpHNk4sysfBYHfjFELJ5E4DSW5eLs4gaA8vujer29ihn8riDM1i/ckl8B8Dk1MDBw/AsXdgqAgx7wlXDsC2fLhp8WNQAuHhMoZAUqDldeCPDNQYe7zwCYAAtgC+NxAe7AG/iDIBAGokA8SAbToPdZcJ3LwCwwDywGxaAUrAYbQAXYBnaAarAPHAINoBmcAT+Cy+AquAnuwNXTDZ6DPvAafEAQhITQEAZigJgiVogD4oKwEV8kCIlAYpFkJA3JRCSIApmHLEFKkbVIBbIdqUEOIseQM8glpB25jTxAepA/kfcohqqjOqgxao2OQ9koBw1H49GpaCY6Ey1El6Ir0XK0Ct2L1qNn0MvoTbQLfY72YwBTw5iYGeaIsTEuFoWlYBmYDFuAlWBlWBVWhzXB53wd68J6sXc4EWfgLNwRruBQPAEX4DPxBfgKvAKvxuvxc/h1/AHeh38m0AhGBAeCF4FHmEzIJMwiFBPKCLsIRwnn4V7qJrwmEolMog3RA+7FZGI2cS5xBXELcT/xNLGd+IjYTyKRDEgOJB9SFIlPyicVkzaR9pJOka6RuklvyWpkU7ILOZicQpaQi8hl5D3kk+Rr5KfkDxRNihXFixJFEVLmUFZRdlKaKFco3ZQPVC2qDdWHGk/Npi6mllPrqOepd6mv1NTUzNU81WLUxGqL1MrVDqhdVHug9k5dW91enaueqq5QX6m+W/20+m31VzQazZrmT0uh5dNW0mpoZ2n3aW81GBpOGjwNocZCjUqNeo1rGi/oFLoVnUOfRi+kl9EP06/QezUpmtaaXE2+5gLNSs1jmp2a/VoMrfFaUVp5Wiu09mhd0nqmTdK21g7SFmov1d6hfVb7EQNjWDC4DAFjCWMn4zyjW4eoY6PD08nWKdXZp9Om06erreuqm6g7W7dS94RuFxNjWjN5zFzmKuYhZgfzvZ6xHkdPpLdcr07vmt4b/TH6/voi/RL9/fo39d8bsAyCDHIM1hg0GNwzxA3tDWMMZxluNTxv2DtGZ4z3GMGYkjGHxvxihBrZG8UazTXaYdRq1G9sYhxiLDXeZHzWuNeEaeJvkm2y3uSkSY8pw9TXVGy63vSU6W8sXRaHlcsqZ51j9ZkZmYWaKcy2m7WZfTC3MU8wLzLfb37PgmrBtsiwWG/RYtFnaWo5yXKeZa3lL1YUK7ZVltVGqwtWb6xtrJOsl1k3WD+z0bfh2RTa1NrctaXZ+tnOtK2yvWFHtGPb5dhtsbtqj9q72WfZV9pfcUAd3B3EDlsc2scSxnqOlYytGtvpqO7IcSxwrHV84MR0inAqcmpwejHOclzKuDXjLoz77OzmnOu80/nOeO3xYeOLxjeN/9PF3kXgUulyYwJtQvCEhRMaJ7x0dXAVuW51veXGcJvktsytxe2Tu4e7zL3OvcfD0iPNY7NHJ1uHHc1ewb7oSfAM8Fzo2ez5zsvdK9/rkNcf3o7eOd57vJ9NtJkomrhz4iMfcx++z3afLl+Wb5rv975dfmZ+fL8qv4f+Fv5C/13+Tzl2nGzOXs6LAOcAWcDRgDdcL+587ulALDAksCSwLUg7KCGoIuh+sHlwZnBtcF+IW8jckNOhhNDw0DWhnTxjnoBXw+sL8wibH3YuXD08Lrwi/GGEfYQsomkSOils0rpJdyOtIiWRDVEgihe1LupetE30zOjjMcSY6JjKmCex42PnxV6IY8RNj9sT9zo+IH5V/J0E2wRFQksiPTE1sSbxTVJg0tqkrsnjJs+ffDnZMFmc3JhCSklM2ZXSPyVoyoYp3aluqcWpHVNtps6eemma4bTcaSem06fzpx9OI6Qlpe1J+8iP4lfx+9N56ZvT+wRcwUbBc6G/cL2wR+QjWit6muGTsTbjWaZP5rrMniy/rLKsXjFXXCF+mR2avS37TU5Uzu6cgdyk3P155Ly0vGMSbUmO5NwMkxmzZ7RLHaTF0q6ZXjM3zOyThct2yRH5VHljvg780W9V2Cq+UTwo8C2oLHg7K3HW4dlasyWzW+fYz1k+52lhcOEPc/G5grkt88zmLZ73YD5n/vYFyIL0BS0LLRYuXdi9KGRR9WLq4pzFPxc5F60t+mtJ0pKmpcZLFy199E3IN7XFGsWy4s5l3su2fYt/K/62bfmE5ZuWfy4RlvxU6lxaVvpxhWDFT9+N/678u4GVGSvbVrmv2rqauFqyumON35rqtVprC9c+WjdpXf161vqS9X9tmL7hUplr2baN1I2KjV3lEeWNmyw3rd70sSKr4mZlQOX+zUabl29+s0W45dpW/61124y3lW57/734+1vbQ7bXV1lXle0g7ijY8WRn4s4LP7B/qNlluKt016fdkt1d1bHV52o8amr2GO1ZVYvWKmp79qbuvbovcF9jnWPd9v3M/aUHwAHFgd8Oph3sOBR+qOUw+3DdEasjm48yjpbUI/Vz6vsashq6GpMb24+FHWtp8m46etzp+O5ms+bKE7onVp2knlx6cuBU4an+09LTvWcyzzxqmd5y5+zkszfOxZxrOx9+/uKPwT+evcC5cOqiz8XmS16Xjv3E/qnhsvvl+la31qM/u/18tM29rf6Kx5XGq55Xm9ontp+85nftzPXA6z/e4N24fDPyZntHQsetztTOrlvCW89u595++UvBLx/uLLpLuFtyT/Ne2X2j+1W/2v26v8u968SDwAetD+Me3nkkePT8sfzxx+6lT2hPyp6aPq155vKsuSe45+pvU37rfi59/qG3+Het3ze/sH1x5A//P1r7Jvd1v5S9HPhzxSuDV7v/cv2rpT+6//7rvNcf3pS8NXhb/Y797sL7pPdPP8z6SPpY/snuU9Pn8M93B/IGBqR8GX/wVwADyqNNBgB/7gaAlgwAA54bqVNU58PBgqjOtIMI/CesOkMOFncA6uA/fUwv/LvpBODATgCsoT49FYBoGgDxngCdMGGkDp/lBs+dykKEZ4Pvoz6l56WDf1NUZ9Kv/B7dAqWqKxjd/gvN04Mn2FAI/wAAAIplWElmTU0AKgAAAAgABAEaAAUAAAABAAAAPgEbAAUAAAABAAAARgEoAAMAAAABAAIAAIdpAAQAAAABAAAATgAAAAAAAACQAAAAAQAAAJAAAAABAAOShgAHAAAAEgAAAHigAgAEAAAAAQAAAGigAwAEAAAAAQAAAGwAAAAAQVNDSUkAAABTY3JlZW5zaG90a40RUQAAAAlwSFlzAAAWJQAAFiUBSVIk8AAAAdZpVFh0WE1MOmNvbS5hZG9iZS54bXAAAAAAADx4OnhtcG1ldGEgeG1sbnM6eD0iYWRvYmU6bnM6bWV0YS8iIHg6eG1wdGs9IlhNUCBDb3JlIDYuMC4wIj4KICAgPHJkZjpSREYgeG1sbnM6cmRmPSJodHRwOi8vd3d3LnczLm9yZy8xOTk5LzAyLzIyLXJkZi1zeW50YXgtbnMjIj4KICAgICAgPHJkZjpEZXNjcmlwdGlvbiByZGY6YWJvdXQ9IiIKICAgICAgICAgICAgeG1sbnM6ZXhpZj0iaHR0cDovL25zLmFkb2JlLmNvbS9leGlmLzEuMC8iPgogICAgICAgICA8ZXhpZjpQaXhlbFlEaW1lbnNpb24+MTA4PC9leGlmOlBpeGVsWURpbWVuc2lvbj4KICAgICAgICAgPGV4aWY6UGl4ZWxYRGltZW5zaW9uPjEwNDwvZXhpZjpQaXhlbFhEaW1lbnNpb24+CiAgICAgICAgIDxleGlmOlVzZXJDb21tZW50PlNjcmVlbnNob3Q8L2V4aWY6VXNlckNvbW1lbnQ+CiAgICAgIDwvcmRmOkRlc2NyaXB0aW9uPgogICA8L3JkZjpSREY+CjwveDp4bXBtZXRhPgrIOQIkAAAAHGlET1QAAAACAAAAAAAAADYAAAAoAAAANgAAADYAAAl5LpotNQAACUVJREFUeAHsW2lQFNcW/lg0iixqcNcyCqUxKGqeRIn6IoFoSEXUVEUDScQAiprnigubilsgRjYNCkYFSTQhC8alQsISfI8YBQzgkodaRrTcfWqpqOATJPd0aqbGcXqZ6e5UT9WcP9N9z7mnT9/v3tPnnHvH7ubNmy2wkWZHwM4GkGax4QyzAaRtfGADyAaQxkdA4+bZVpANII2PgMbNs60gG0AaHwGNm2dbQTaAND4CGjfPtoJsAGl8BDRunm0F2QDS+Aho3DzbCrIBpMwI7MjNRcGPBcooM9AS+HogQqdONWjR1qXVrKD1Kck4cuSI4qM3bNgwLFoYpbhepRRaDUBLY6Jx/vx5pd5br6d37974ODFJf6+1C6sBKCwiHA8ePFB8/JycnLB96zbF9Sql0CoAus+ACWcAqUXbGEDtGFBaJKsA6BxzbdHMxalFSczFPcdcnRbJKgCqZMFBMgsS1KIoFiT4sGBBi2QVAP1QUIDcz3NVG7+p70/FG4GBqumXo9gqABLLgYKCghDyTjDvOIgBrOVcyCoAEsuBpkdEwP9Vf16AxFyklnMh1QGqrKzEoEGD0KZNG94BFGOI5UCxMbHwZs/go3PnziE6NoaPDbm5UGNjI44fPw4fHx/eZ1jKUBWgo8eOITEpEW3atsUro/+JcWPHonv37mbbKpYDpaemoUuXLrx67927h4gZ03n5luZCly9fxk+Fhfh32X/Q2NCAmOgYDPb25n2OJQzVAGpubsbipUtAL2FIAwcOZECNwz9efBH29vaGLJPXt2/fxszZs0zyqJF0fL4jFw4ODrwyxJgWHsYNIp9Q5qbNaN++PR9b3/748WP8VlXFgPkJJ06c0LfTRY8ePbAu6WNRW57oJHKjGkBiH2Z3d3cE+AfgVT8/uLq6PmUmJacFBT+A9AhVEDp16oSN6Rue6m/cQJPlwoULxs36e1pFr48bh8DAN+Di7Kxv113cvXsXP5eWorikGDdu3NA1P/VLhVcKOpQiVQCqr6/HvIUL8OD+fVE7HVu1gu+IEdyq8vTw4OQP/vorcnbkgPSIkZeXF5bFxYuJYd36T1DFZr4YtWvXDtNCQzF61GhO9Mwff3Cr5dDhw2h69EisO5xY//SUVLi4uIjKShFQBaCt27ZxM02KAYYyffv25V7s6NGjhs2C135sBUZOnyEoQ8ztOdkoZN8LqTTYezDq79Xj7NmzUrvo5cgzRISH6+/lXCgOEFWco2Nj0dLyWI5dkvu+M2UKJk6YKCq/b/8+7Ny1S1ROCQE7O3skffQRFx3K1ac4QCtXr0Jtba1cuyT3nztnDl72fVlU/nD5YaSlp4vKKSUwYMAArFi2XLY6RQEqLy9HanqabKOkKnB374S4mBh069ZNtMuVK1ewNjGRfeD/JyqrlMCCefMxfPhwWeoUA+gR+4AuiIpSfQDIfQwZMhhjA15jv0NgZ2cneQBaWlpQU1ODIhaJVVfXqO6GaQKlJiejFQuELCXFAMrfnY+vv/lG0I6uXbuigSV0d+7cEZQzxXRzc4PfGD8WmvuDQnS5RKFycUkJSg+UWmSPq6sbnJza4urVq4KmTH77bbw16S1BGSGmIgDdunUL86MW4v8PH/I+i2Z+4tq16NWrF8orylFYVISTJ0/yyhsyqIQye+YstGUVCaWJcqyMTZtY8vmbJNUeHp4sXxqLEcNH4NKlS4iJixNcia2feQZpySno2LGjJP3GQooAtDHjUxw8eNBY9xP3psJhShwJqLJfykD1LGOyZ9WBYBaljX9zvDFL0Xtyfd/l5+Pb/O/ARvsp3Y6OjvD19X0iV9MJZX22BaUsgRWikSNHYs6H/xIS4eXJBuj06dNYnrCC9wHEoFocJW/kpkxRQ2MDysp+YWAV4uLFi5wIlV3mzpmLF1g09HdRVXUVPs3I0FcuaNZTTuPP3KqbiWoH2UXumpJyqsUJ0aqElejXr5+QiEmeLIBo5sXGx6OuTjiZCwkOQdB4aaug9mQtKioqMYHt8UipjZl8KxmN9E3J+zqPi758hvlIqqvt3bcPu74UzrEoCV+7eo1ZQQ29hiyASg8cQNaWLMHhoCrz+nWfyIpkBB+gAWZTUxOiFi/CtWvXBK2JnBHJAp0xgjLGTIsBomhsPlvaYhGZ2vv9VFQ9xkpDVTXVnHske6iwSftPbm7tWcT3LNsr8uaq5xRFqkW075WcmiKonlx8GnP15gQ7FgNEZRMqnwgRDRIdChTaqxHqL8SjQmr+7t0oKi4CzWAp5PWCF0JCguHR96+irJQ+UmWuX7+OJdFLTQY7hjoo4Hk3JMSwSfDaIoDITy9asljSwNBsmcGKmVSxVooo6tuenc3lVJboHPPKGISHhSnmdmn1bM7K1AcXQjZRREguX+pqtgggKR9FYyMDAgIQyk7PyMmqKSj5Ki8Pe/buMVZv9r2npyd3JltOIEKbkjt37eT2rMwxwJygySKAyJii4mLsYEehpOyR6Iynvf/5c+dJqp3p+hj+ZufkcHszhm1yrmkWr1m1Gs4mNujE9FIlIm1DOs6cOSMmqufT3hdN0tfYZJVKFgNED6irq+OMFIteDI2h7xLtlYwaOcqwWfS65OcSfLZ1q6icuQL0XYplBVexLXNDvdXV1cjYvAl01kEq0XeYJmefPn2kduHkZAFEGqhUkpmVhYrKCrMeTJWFD0KnoXXr1qL9LrKSytLoaDQ3N4nKWiIwaeIkTJk8WbQruTTKkfbu32+y4sCn4CWflzAzMpLV7sw//y0bIJ1RdHaAIjtzBrFnz55YsmgxOnfurFNj8jc5JQWVRypN8pRopElCJ4M6dOjAq44Or9BWyqlTp3hljBkODo54790QWWcUFAOIjCN/TH5Z6FCF8UskrEjA8/37Gzfr72nLOTY+Tn+v1gUFMRFh/NvUv//3d6xes0by46niTi6NghE5pChAZAj5ZfLP5KfFiD6a2eyvH0KR3RcsStpPLkVlcnZ2wZbMTN6jYA9ZpT6MnWCV4iGGDh2KD2fNtij4MH5NxQGiB1A4vJclsXksJKZzZHxExUMqIgoRlVCorP930MqEBPTvx7+a45cvE4zaqPpO37Igloyas5Eo9G6qAKR74Pd7vufyFt298S+dJaAzBXx0nx3bCp8ewcdWvD04OBgTxgfx6k3fuAGHDh3i5Us9wMKrwATjTwAAAP//9MFgrwAACeNJREFU7Vt5UJRHFv8B8carZD2xPGsxq0bFM0Y2HkiCB1FBXVBRATXKKiCnyqqJXBoB0Y2CgldW1MQTLZUIi1VZg4i1oCliKShred836iq6/WaLqplx+vv6m/nGcZJ5/8z39Xv9+nX/+ut+73WP3d27d9/ATLR33z7s/H4nV7v7MHcEBQZy+VeuXkVEZASXrzbD83NPTPX356rNzMpCXn4elz9xwkSMHTOGyzeGYWdOgHbt3o1du3dx7fLy8oLfX3y5/LJfy7AsLo7LV5sx8OOBmDd3Lldt9o7tyMnJ4fJ9vH3g4+3N5RvDsAGkNWq/O4B+b0ucr68vvhjtpQW56Y9m/YL27d+HHTv5e9DHAwYgZF4ItxdPnz5F4IwgLl9thtwAp61ZjcLCQm6zM4JmYNjQoVy+MQyzAPTmzRvkHDyAnQyc169fc+3q2LEjEuLiuXxihDMn4SpzFt4FfbV0KVz+6MJtKnbx31BRUcHl16pVC9OnTcfQIUO4MkoZqgP05MkTfLtuLUpKSmRtsXdwwKbMLNSpU4cr+4/sbTh48CCXrxbD0bEh1qenw97e3qDKFy9eICAoCNXVrwzytQvd3NwQFBAo2S9tealnVQGi2bVqdRru3Lkj1aYOL3ZRLLp17apTpv1y8eJFLIxdpF1klmd3d+bys0HlkVKPsk0bZ4SFhsK5TRueSqFy1QA6dPgwtmVnC82wGstcXFwQFhKKJk2a1BQZ/E1OSUHxqWKDPDUKa9eujbTUVWjatClX3YMHD5Catgrnzp3jyugzaGUICgyC26BB+izhd5MBqqqqQnpGBk4WnxRuFHZ28Bo1ChTYObBlTo4oYI2OiVEEvpxObf7YMWOZLRO0iww+V1dXawLvHFpy2T4rSkOZ4zB96jTQHqWUTAKosrJSs6TdvHlTuF1HR0fMmT0brr1cheuQYP4/87EhM1NRHRHhrn/qioULFghNlBp9tL/SPkv7rSi1a9dOs1q0bNlStIpGzmiAjublYct3W/Hq5UvhBjt37oxQ5lY7OTkJ19EW3LR5M3J/zNUuMumZBivu62WgSaOUaJ+l/VbKq9PXWa9ePcyaORMD+g/QZ3HfjQIo58ABZG/P5io1xBjh6YlJfpMUzVR9PeS+U1y1P2e/PkvxO02WiPnhsvuflGJa8rYxL5P2XyUUPCdYeF8yCqAbN24gIioSr17Ju5z169fH7Flfom/fvkr6ICn7079+wsZNm/Ds2TNJOR5z8KeDERgQYNSeYEhncXEx1mWkg/ZjOarfoAFWJaegUaNGcqIavlEAUU3y2A6wYFSK6tatixVJy9G8eXMpMaN4jx8/xp69e3E076jQRKFGaL/x8/NFp46djGpTqtKtW7cQFRON58+fS4lhyuQpGDlihKSMNtNogGj2hs4Pw8OHD7X1vfUczpaRvn36vFWuVsFTNmvPnD6Nf5eW4MqVKxp7Hj16BJocjRs3YftdM3zU/SP0dnWF0g1aiY30FSWnpkhWad26Nb5ZvkLRMm80QGRJwbFjyFifIWlUixYtsHLFN6otJ5KNWYhJSz2lpOS82ZjoGPTs0UORlSYBRJv2wthYVFZelGzUz9cPXqNHS8oQkzZdCkiLTp7ExPETzDrjecZQQLqfnfn069cXH3b5kCemUy7iNPXq1QvRkVE69UReTAKIGjh//jwWL10i2VZd5l6mpaSyJaexQbmHbEnKz8/XnFbeu3dPI0POxV+DgxXHSwYbECz89exZrGYZawKJyNnZGR7DPeDmNgj16tYzqIWW+BC21D+XcFgcHD5gq8gKtGrVyqAOqUKTASLla779O44fPy7VDoawDO+sGTN1ZCouXNDENYUnThiOp1jGwWecN7zHjWPJBzudumq/kMOzfccOg9l3mmBunwxiYA1H27ZtdZrO2LAeBQUFOmX6L6NGjsTkSZP1i4XeVQGIZn1o+Hz8l2V8eWRnZ4/E+HjNrCw8UYgjuT/iwoUKnrhOeW/X3gieMwf0ValN5OysTV8H2uRFqEuXLhqg+vfrj8uXL2PBokUs68M/UmnUqDHL86WCglRjSBWAqOE9e/fg+x9+kLSBvKiqqmd49Eja8zOkhJbHIYOHwH3YMKMzEdp6KROQx5bVgmMFsp6odr2aZ7KHBp1iQimizAHZbSypBtBLlvIJCw9nRw23jbVFqB59iT179oCH+3D221PR0kdOTWlpKY6ymzklJaWSM1/IGBmhDh06aA4kTVmeVQOIbC0qKtKk5GXsVo3t5PQHLGKJTpHN9/r164hPTDT7BNLu3NIlS9GFHamYQqoCRIZ8texrnGXe0Lui0JAQoeTjz4U/Mw9tzbsyC3I3hEQNUR2gS5cuIWbhQrMvHzUdnOTnh9Gj5GMsuQssNfrU+K3NDupSVyajWbNmJqtTHSCySO4GJs9qukTSkN0NOH3mNE/krXIPDw8EsIsaciTiDmvr6MEifsr30ZG7UhrvM14TGiitZ0jeLABRxyh4q2LXpuToA3bKSNevPvP4DJ07/T+JSdnqzVu2gK5dyZEry7FFRUTKiWFZfBzKyspk5Ro2bIhpU6fhk4EDNbLlFeXIZSHBiSIWqwlk7+msK4V9PXSMrgaZBSAyjM5ItrIDPR5RR+huNl1RMpR6p9PKQ4cPsXgpVzKNT4EjJSDlaG7IPNy+zfcwKcaiMytPzxFoYCDeoowBnerSQeX9+/e5zdE9P5pwapHZAKK8WmR0FK5du6Zja7du3TRfC2WXeVectCtQ2uXLObO1i3SeKcrfnLVRp0z/hWyZMtXfYJagRjZ97TqhwzvSdZIFtUdyj7x1gYRyd0sWL65Rqcqv2QAi606fOYPEpETQIH7q9mcGjAco5a6UAoICJb+izPUbJI+tKcscEhbKbZa+no3sfp5SIofoCDuCpzTXy5evkJiQgPbs7oGaZFaAyFBKoXTv3l1zPmOs4dELYkCDwaOkhES0b9+ex8aZX35BQmICl08XOpYnJnH5cgxajsvLy0EZa7XJ7ACpYfDKlGScOnWKq0ruUFDuRlAfdqBI9xPeR7IKgLZs3YrDR/gXM/yn+Gs2eN4Ay/2vR+6PWzy976LcKgCS8whNHSg5gE3Vb0p9qwComC1vyWyZMxfJLZHmaldEr1UA9B9KHzFHwVyUxBwEtb0vtWy1CoDo5k4gc7XNRVnMxTYUnJqrPSV6rQIg6pBcLKSk09qyxsZA2jrM+Ww1AMnFQsYOkqkxkLHtitazGoDkYiHRDuvLvc8xENlqNQDJxUL6Ay/6/j7HQFYFkOiA/9bkrOYL+q0NvGh/bACJjpSF5GwAWWjgRZu1ASQ6UhaSswFkoYEXbdYGkOhIWUjOBpCFBl60WRtAoiNlITkbQBYaeNFmbQCJjpSF5GwAWWjgRZv9Hx6MEG3zWgEfAAAAAElFTkSuQmCC;" vertex="1" parent="1">
          <mxGeometry x="266" y="385.75" width="16" height="16.61" as="geometry" />
        </mxCell>
      </root>
    </mxGraphModel>
  </diagram>
</mxfile>
